<svg height="472pt" viewBox="-3 0 471 472" width="472pt" xmlns="http://www.w3.org/2000/svg"><path d="m184.5 272-16 88-24 24v48h-80v-32l-32-32-32-72v-32l8-24 8-96h40l8 112 32 48h32l16-40zm0 0" fill="#ffead0"/><path d="m464.5 264v32l-32 72-32 32v32h-80v-48l-24-24-16-88 40-8 16 40h32l32-48 8-112h40l8 96zm0 0" fill="#ffead0"/><path d="m256.5 232v18c0 3.296875-3.601562 6-8 6h-32c-4.398438 0-8-2.703125-8-6v-18zm0 0" fill="#acabb1"/><path d="m256.5 196.320312v27.679688h-48v-27.679688c-37.675781-11.847656-61.066406-49.417968-55.074219-88.457031 5.996094-39.035156 39.578125-67.859375 79.074219-67.859375s73.078125 28.824219 79.074219 67.859375c5.992187 39.039063-17.398438 76.609375-55.074219 88.457031zm0 0" fill="#ffe26e"/><path d="m48.5 432h112v40h-112zm0 0" fill="#957856"/><path d="m304.5 432h112v40h-112zm0 0" fill="#957856"/><path d="m48.5 464h112v8h-112zm0 0" fill="#8c6239"/><path d="m304.5 464h112v8h-112zm0 0" fill="#8c6239"/><g fill="#ff5023"><path d="m224.5 0h16v16h-16zm0 0"/><path d="m141.992188 40.804688 11.316406-11.316407 11.3125 11.316407-11.3125 11.3125zm0 0"/><path d="m112.5 112h16v16h-16zm0 0"/><path d="m141.992188 199.195312 11.316406-11.3125 11.3125 11.3125-11.3125 11.3125zm0 0"/><path d="m300.386719 199.195312 11.3125-11.3125 11.3125 11.3125-11.3125 11.3125zm0 0"/><path d="m336.5 112h16v16h-16zm0 0"/><path d="m300.386719 40.804688 11.3125-11.316407 11.3125 11.316407-11.3125 11.3125zm0 0"/></g><path d="m266.84375 114.34375-24 24c-1.5 1.5-2.34375 3.535156-2.34375 5.65625v72h-16v-72c0-2.121094-.84375-4.15625-2.34375-5.65625l-24-24-11.3125 11.3125 21.65625 21.65625v84.6875h48v-84.6875l21.65625-21.65625zm0 0" fill="#ff9811"/><path d="m224.5 208h16v8h-16zm0 0" fill="#e3e3e5"/><path d="m208.5 232h48v8h-48zm0 0" fill="#6a696e"/></svg>