<svg xmlns="http://www.w3.org/2000/svg" viewBox="0 0 226 60">
    <defs>
        <style>
            .cls-1{fill:#594343}.cls-2{fill:#e8a93a}
        </style>
    </defs>
    <g id="ic_linkbit" transform="translate(0 -.003)">
        <g id="그룹_875" data-name="그룹 875" transform="translate(64.977 19.819)">
            <path id="패스_1" d="M101.92 32.26h7.28v22.55h13.275v7.243H101.92z" class="cls-1" data-name="패스 1" transform="translate(-101.92 -32.184)"/>
            <path id="패스_2" d="M143.39 62.053V32.26h7.281v29.8h-7.281z" class="cls-1" data-name="패스 2" transform="translate(-117.225 -32.184)"/>
            <path id="패스_3" d="M165.977 32.14l17.446 15.679V32.14h7.521v29.869H189.3l-17.4-15.641v15.641h-7.5V32.14z" class="cls-1" data-name="패스 3" transform="translate(-124.979 -32.14)"/>
            <path id="패스_4" d="M215.92 32.26h7.262v11.42l7.906-11.42h8.41l-9.489 15.1 11.023 14.7h-8.846l-9-11.079v11.078h-7.262V32.26z" class="cls-1" data-name="패스 4" transform="translate(-143.993 -32.184)"/>
            <path id="패스_5" d="M276.4 44.532a10.847 10.847 0 0 1 2.29 1.514 9.414 9.414 0 0 1 0 13.237 8.871 8.871 0 0 1-6.581 2.77H261.04V32.26h8.316a8.041 8.041 0 0 1 5.918 2.48 7.822 7.822 0 0 1 2.366 5.672 9.553 9.553 0 0 1-1.24 4.12zm-7.041-6.455h-2.347v5.451c.53-.025 1.275-.076 2.234-.145a2.806 2.806 0 0 0 2.625-2.738 2.567 2.567 0 0 0-2.509-2.568zm6.208 14.587a3.718 3.718 0 0 0-3.458-3.659c-1.773-.095-3.306-.019-5.1-.019v7.231h5.1a3.5 3.5 0 0 0 3.462-3.552z" class="cls-1" data-name="패스 5" transform="translate(-160.645 -32.184)"/>
            <path id="패스_6" d="M301.03 62.053V32.26h7.281v29.8h-7.281z" class="cls-1" data-name="패스 6" transform="translate(-175.403 -32.184)"/>
            <path id="패스_7" d="M320.27 32.26h23.257v7.231h-7.6l.278 22.569h-8.225l-.088-22.569h-7.622z" class="cls-1" data-name="패스 7" transform="translate(-182.504 -32.184)"/>
        </g>
        <g id="그룹_876" data-name="그룹 876" transform="translate(0 .003)">
            <path id="패스_8" d="M29.839 10.649l-19.25 5.161a4.476 4.476 0 0 0-3.319 4.322v8.537a4.474 4.474 0 0 0 5.63 4.322l19.25-5.155a4.476 4.476 0 0 0 3.319-4.322v-8.543a4.477 4.477 0 0 0-5.63-4.322zM13.926 28.322a1.184 1.184 0 0 1-.852 1.079.63.63 0 0 1-.852-.625V19.69a1.184 1.184 0 0 1 .852-1.079.63.63 0 0 1 .852.625zm3.155-.562a1.184 1.184 0 0 1-.852 1.079.63.63 0 0 1-.852-.625v-4.845a1.184 1.184 0 0 1 .852-1.079.63.63 0 0 1 .852.625zm.126-7.7a1.184 1.184 0 0 1-.852 1.079.63.63 0 0 1-.852-.625v-1.7a1.184 1.184 0 0 1 .852-1.079.63.63 0 0 1 .852.625zm3.281 6.505a1.184 1.184 0 0 1-.852 1.079.63.63 0 0 1-.852-.625V17.93a1.184 1.184 0 0 1 .852-1.079.63.63 0 0 1 .852.625zm3.281-.877a1.184 1.184 0 0 1-.852 1.079.63.63 0 0 1-.852-.625v-9.089a1.184 1.184 0 0 1 .852-1.079.63.63 0 0 1 .852.625zm3.281-.888a1.184 1.184 0 0 1-.85 1.08.63.63 0 0 1-.852-.625v-9.079A1.184 1.184 0 0 1 26.2 15.1a.63.63 0 0 1 .852.625zm3.281-.877A1.184 1.184 0 0 1 29.479 25a.63.63 0 0 1-.852-.625v-2.836a1.184 1.184 0 0 1 .852-1.079.63.63 0 0 1 .852.625zm0-6.246a1.184 1.184 0 0 1-.852 1.079.63.63 0 0 1-.852-.625v-2.838a1.184 1.184 0 0 1 .852-1.079.63.63 0 0 1 .852.625z" class="cls-2" data-name="패스 8" transform="translate(-2.683 -3.874)"/>
            <path id="패스_9" d="M37.629 28.172L5.767 19.715l-.675-.181-.032-3.6v-.05a4.2 4.2 0 0 1 2.833-4.035c.082-.025.164-.05.246-.069l18.992-5.031a4.41 4.41 0 0 1 5.569 4.216v8.769a4.284 4.284 0 0 1-.644 2.258l2.208.586a2.6 2.6 0 0 0 3.294-2.414V8.739A8.79 8.79 0 0 0 29.4.026a7.973 7.973 0 0 0-1.027-.013c-.069 0-.139 0-.208.006-.088.006-.183.019-.271.025a9.39 9.39 0 0 0-1.154.187c-.095.025-.2.044-.29.075L22.4 1.373 3.281 6.437a4.443 4.443 0 0 0-2.246 1.422 3.088 3.088 0 0 0-.3.405 4.365 4.365 0 0 0-.713 2.37v2.826H.013v4.8l.006.006v.156L0 44.225a8.749 8.749 0 0 0 6.543 8.438L33.036 59.7a8.807 8.807 0 0 0 11.124-8.427l.013-14.662a8.749 8.749 0 0 0-6.544-8.439z" class="cls-1" data-name="패스 9" transform="translate(0 -.003)"/>
            <path id="패스_10" d="M37.561 8.84v11.553a2.6 2.6 0 0 1-3.294 2.442l-2.208-.593a4.371 4.371 0 0 0 .644-2.284v-8.865a4.42 4.42 0 0 0-5.565-4.265L8.147 11.919a3.767 3.767 0 0 0-.246.069 4.242 4.242 0 0 0-2.833 4.082v.05l.032 3.642.675.183-5.749-1.306v-.164H.02v-4.858h.006v-2.858a4.453 4.453 0 0 1 .713-2.4 3.122 3.122 0 0 1 .3-.41 4.438 4.438 0 0 1 2.249-1.437l19.118-5.123L26.456.31c.095-.032.2-.05.29-.076A9.008 9.008 0 0 1 27.9.044c.088-.006.183-.019.271-.025.069-.006.139-.006.208-.006A7.881 7.881 0 0 1 29.4.026a8.849 8.849 0 0 1 8.161 8.814z" class="cls-1" data-name="패스 10" transform="translate(-.007 -.003)"/>
            <path id="패스_11" d="M37.561 8.84v9.029a2.6 2.6 0 0 1-3.294 2.448l-1.567-.422v-8.8a4.42 4.42 0 0 0-5.565-4.265L8.147 11.919a3.767 3.767 0 0 0-.246.069 4.216 4.216 0 0 0-2.814 3.666q-.019.208-.019.416v.05l.013 1.11.019 2.53.675.183-5.749-1.304v-.164H.02v-4.858h.006v-2.858a4.453 4.453 0 0 1 .713-2.4 3.122 3.122 0 0 1 .3-.41 4.438 4.438 0 0 1 2.249-1.437l19.118-5.123L26.456.31c.095-.032.2-.05.29-.076A9.008 9.008 0 0 1 27.9.044c.088-.006.183-.019.271-.025.069-.006.139-.006.208-.006A7.881 7.881 0 0 1 29.4.026a8.849 8.849 0 0 1 8.161 8.814z" class="cls-1" data-name="패스 11" transform="translate(-.007 -.003)"/>
        </g>
    </g>
</svg>
