<svg version="1.1" viewBox="0.0 0.0 1280.0 720.0" fill="none" stroke="none" stroke-linecap="square" stroke-miterlimit="10" xmlns:xlink="http://www.w3.org/1999/xlink" xmlns="http://www.w3.org/2000/svg"><clipPath id="p4.0"><path d="m0 0l1280.0 0l0 720.0l-1280.0 0l0 -720.0z" clip-rule="nonzero"/></clipPath><g clip-path="url(#p4.0)"><path fill="#ffffff" d="m0 0l1280.0 0l0 720.0l-1280.0 0z" fill-rule="evenodd"/><path fill="#ffb900" d="m-1.0498687E-4 720.0003l0 -720.0003l1280.0 0l0 720.0003z" fill-rule="evenodd"/><path fill="#000000" d="m104.6332 188.24702l430.4548 0l0 -83.274536l-430.4548 0z" fill-rule="evenodd"/><path fill="#000000" fill-opacity="0.0" d="m104.63253 109.45145l430.45688 0l0 74.3307l-430.45688 0z" fill-rule="evenodd"/><path fill="#ffffff" d="m159.5369 131.90144l0 2.171875q0 0.5 -0.1875 0.65625q-0.21875 0.203125 -1.0 0.203125l-24.578125 0q-0.640625 0 -0.828125 -0.1875q-0.140625 -0.140625 -0.140625 -0.625l0 -2.21875l26.734375 0zm-26.125 7.859375l25.671875 0q2.421875 0 4.078125 -1.546875q1.71875 -1.578125 1.71875 -3.890625l0 -10.09375q0 -1.265625 -0.90625 -2.015625q-0.734375 -0.609375 -1.765625 -0.609375q-1.125 0 -1.84375 0.71875q-0.828125 0.71875 -0.828125 1.953125l0 2.75l-26.734375 0l0 -2.640625q0 -1.265625 -0.890625 -2.078125q-0.734375 -0.65625 -1.78125 -0.65625q-1.09375 0 -1.859375 0.671875q-0.8125076 0.828125 -0.8125076 2.0625l0 9.9375q0 2.375 1.7187576 3.90625q1.65625 1.53125 4.234375 1.53125zm32.96875 2.78125l-17.640625 0l0 -4.578125q0 -1.21875 -0.984375 -1.890625q-0.6875 -0.515625 -1.640625 -0.515625q-1.046875 0 -1.75 0.625q-0.859375 0.6875 -0.859375 1.890625l0 4.46875l-17.546883 0q-1.125 0 -1.890625 0.65625q-0.671875 0.65625 -0.78125 1.59375q-0.078125 1.0 0.515625 1.671875q0.609375 0.84375 1.75 0.84375l40.875008 0q2.625 0 2.625 -2.4375q-0.109375 -2.328125 -2.671875 -2.328125zm-7.765625 8.59375l-29.21875 0q-2.6093826 0 -2.5156326 2.421875q0 2.453125 2.5156326 2.453125l29.0625 0q0.78125 0 0.984375 0.1875q0.09375 0.078125 0.09375 0.578125l0 7.8125q0 1.234375 0.796875 2.046875q0.75 0.71875 1.875 0.71875q1.078125 0 1.8125 -0.703125q0.859375 -0.796875 0.859375 -2.0625l0 -7.921875q0 -2.703125 -1.75 -4.171875q-1.609375 -1.359375 -4.515625 -1.359375zm46.5625 -28.390625l-23.640625 0q-2.578125 0 -2.578125 2.40625q-0.09375 2.46875 2.515625 2.46875l9.203125 0l0 0.609375q0 5.03125 -3.296875 8.625q-2.8125 3.046875 -8.125 5.234375q-1.15625 0.453125 -1.53125 1.53125q-0.296875 0.96875 0.171875 1.890625q0.515625 0.953125 1.375 1.28125q0.9375 0.4375 2.046875 0.09375q4.921875 -1.921875 8.375 -5.078125q3.359375 -3.234375 3.53125 -3.96875q0 0.34375 3.84375 3.6875q3.453125 2.96875 7.875 4.859375q1.125 0.484375 2.1875 0.140625q1.046875 -0.34375 1.578125 -1.34375q0.453125 -0.953125 0.1875 -1.984375q-0.421875 -1.09375 -1.546875 -1.515625q-4.96875 -2.0 -7.828125 -4.953125q-3.546875 -3.640625 -3.546875 -8.59375l0 -0.515625l9.203125 0q2.40625 0 2.40625 -2.453125q0 -2.421875 -2.40625 -2.421875zm10.6875 11.359375l0 -10.09375q0 -2.515625 -2.671875 -2.515625q-2.625 0 -2.625 2.515625l0 20.890625q0 1.21875 0.8125 1.953125q0.734375 0.71875 1.8125 0.71875q1.078125 0 1.796875 -0.703125q0.875 -0.71875 0.875 -1.96875l0 -5.921875l4.5625 0q2.46875 0 2.46875 -2.46875q0 -2.40625 -2.46875 -2.40625l-4.5625 0zm-5.296875 16.3125l0 2.125l-23.765625 0l0 -2.125q0 -1.265625 -0.90625 -1.984375q-0.71875 -0.640625 -1.765625 -0.640625q-1.0625 0 -1.765625 0.65625q-0.84375 0.734375 -0.84375 1.96875l0 10.734375q0 2.09375 1.28125 3.46875q1.390625 1.4375 3.625 1.4375l24.21875 0q2.421875 0 3.828125 -1.40625q1.390625 -1.296875 1.390625 -3.40625l0 -10.828125q0 -1.265625 -0.90625 -1.984375q-0.71875 -0.640625 -1.765625 -0.640625q-1.046875 0 -1.78125 0.65625q-0.84375 0.734375 -0.84375 1.96875zm0 7.0l0 3.15625q0 0.4375 -0.0625 0.484375q-0.109375 0.125 -0.796875 0.125l-22.078125 0q-0.59375 0 -0.734375 -0.140625q-0.09375 -0.09375 -0.09375 -0.515625l0 -3.109375l23.765625 0zm41.796875 -34.921875l-13.65625 0q-2.5625 0 -2.5625 2.40625q0 2.46875 2.5625 2.46875l13.75 0q2.546875 0 2.46875 -2.484375q0 -2.390625 -2.5625 -2.390625zm5.515625 6.5l-24.796875 0q-2.5625 0 -2.5625 2.421875q0 2.40625 2.5625 2.40625l24.890625 0q1.15625 0 1.875 -0.75q0.703125 -0.671875 0.703125 -1.65625q0 -1.09375 -0.796875 -1.78125q-0.734375 -0.640625 -1.875 -0.640625zm-12.1875 5.6875q-6.21875 0 -9.828125 2.359375q-3.578125 2.421875 -3.578125 6.140625q0 3.625 3.578125 5.921875q3.59375 2.421875 9.828125 2.421875q6.0625 0 9.71875 -2.421875q3.578125 -2.296875 3.578125 -5.921875q0 -3.71875 -3.578125 -6.140625q-3.65625 -2.359375 -9.71875 -2.359375zm0 4.859375q4.09375 0 6.296875 1.21875q1.703125 0.9375 1.703125 2.421875q0 1.3125 -1.703125 2.25q-2.203125 1.21875 -6.296875 1.21875q-4.140625 0 -6.390625 -1.21875q-1.71875 -0.9375 -1.71875 -2.25q0 -1.453125 1.71875 -2.421875q2.25 -1.21875 6.390625 -1.21875zm23.5 -2.3125l0 -13.21875q0 -2.515625 -2.671875 -2.515625q-2.625 0 -2.625 2.515625l0 28.859375q0 1.21875 0.8125 1.953125q0.734375 0.71875 1.8125 0.71875q1.078125 0 1.796875 -0.703125q0.875 -0.71875 0.875 -1.96875l0 -10.765625l4.5625 0q2.46875 0 2.46875 -2.46875q0 -2.40625 -2.46875 -2.40625l-4.5625 0zm-29.0625 16.828125q0 -1.25 -0.875 -1.96875q-0.71875 -0.703125 -1.796875 -0.703125q-1.09375 0 -1.796875 0.734375q-0.8125 0.71875 -0.8125 1.9375l0 6.25q0 2.46875 1.5625 4.109375q1.578125 1.640625 4.171875 1.640625l28.4375 0q2.46875 0 2.46875 -2.46875q0 -2.40625 -2.46875 -2.40625l-27.5 0q-1.03125 0 -1.203125 -0.171875q-0.1875 -0.171875 -0.1875 -1.109375l0 -5.84375z" fill-rule="nonzero"/><path fill="#ffffff" d="m326.65002 123.12019l-23.640625 0q-2.578125 0 -2.578125 2.390625q-0.078125 2.484375 2.515625 2.484375l9.203125 0l0 7.375q0 7.859375 -3.359375 14.34375q-3.171875 6.234375 -8.09375 8.765625q-1.078125 0.5 -1.46875 1.609375q-0.28125 1.046875 0.234375 1.984375q0.453125 0.890625 1.328125 1.234375q1.03125 0.484375 2.140625 -0.0625q4.625 -2.328125 8.28125 -7.71875q3.5625 -5.25 3.5625 -11.15625q-0.15625 5.734375 3.5 11.15625q3.703125 5.3125 8.109375 7.703125q1.1875 0.609375 2.28125 0.296875q1.078125 -0.28125 1.625 -1.3125q0.4375 -0.890625 0.1875 -1.90625q-0.28125 -1.109375 -1.375 -1.6875q-5.171875 -2.875 -8.34375 -9.03125q-3.3125 -6.421875 -3.3125 -14.265625l0 -7.328125l9.203125 0q2.40625 0 2.40625 -2.46875q0 -2.40625 -2.40625 -2.40625zm12.203125 41.46875l0 -40.515625q0 -1.234375 -0.96875 -1.96875q-0.703125 -0.546875 -1.703125 -0.546875q-1.0625 0 -1.796875 0.5625q-0.875 0.765625 -0.875 1.953125l0 40.515625q0 1.171875 0.78125 1.96875q0.734375 0.75 1.890625 0.75q1.09375 0 1.796875 -0.734375q0.875 -0.765625 0.875 -1.984375zm32.484406 -41.84375l-15.9375305 0q-2.625 0 -2.515625 2.453125q0 2.421875 2.5625 2.421875l15.5781555 0q0.6875 0 1.015625 0.28125q0.265625 0.203125 0.265625 0.75l0 2.296875q0 5.28125 -4.34375 8.234375q-4.546875 3.0 -13.2656555 3.359375q-1.21875 0 -2.015625 0.796875q-0.6875 0.6875 -0.6875 1.71875q0 1.0625 0.890625 1.75q0.765625 0.609375 1.96875 0.609375q10.6250305 -0.484375 16.56253 -4.8125q6.078125 -4.390625 6.078125 -11.609375l0 -2.765625q0 -2.5 -1.859375 -4.015625q-1.703125 -1.46875 -4.296875 -1.46875zm19.328125 11.359375l0 -10.09375q0 -2.515625 -2.671875 -2.515625q-2.625 0 -2.625 2.515625l0 20.890625q0 1.21875 0.8125 1.953125q0.734375 0.71875 1.8125 0.71875q1.078125 0 1.796875 -0.703125q0.875 -0.71875 0.875 -1.96875l0 -5.921875l4.5625 0q2.46875 0 2.46875 -2.46875q0 -2.40625 -2.46875 -2.40625l-4.5625 0zm-5.296875 16.3125l0 2.125l-23.765625 0l0 -2.125q0 -1.265625 -0.90625 -1.984375q-0.7187805 -0.640625 -1.7656555 -0.640625q-1.0625 0 -1.765625 0.65625q-0.84375 0.734375 -0.84375 1.96875l0 10.734375q0 2.09375 1.28125 3.46875q1.390625 1.4375 3.6250305 1.4375l24.21875 0q2.421875 0 3.828125 -1.40625q1.390625 -1.296875 1.390625 -3.40625l0 -10.828125q0 -1.265625 -0.90625 -1.984375q-0.71875 -0.640625 -1.765625 -0.640625q-1.046875 0 -1.78125 0.65625q-0.84375 0.734375 -0.84375 1.96875zm0 7.0l0 3.15625q0 0.4375 -0.0625 0.484375q-0.109375 0.125 -0.796875 0.125l-22.078125 0q-0.59375 0 -0.734375 -0.140625q-0.09375 -0.09375 -0.09375 -0.515625l0 -3.109375l23.765625 0z" fill-rule="nonzero"/><path fill="#ffffff" d="m459.3101 122.90144l-33.578125 0q-2.578125 0 -2.578125 2.40625q-0.09375 2.46875 2.515625 2.46875l14.15625 0l0 0.671875q0 3.875 -4.46875 6.890625q-4.578125 3.046875 -11.328125 3.390625q-1.296875 0 -2.09375 0.890625q-0.703125 0.78125 -0.59375 1.828125q0.09375 1.109375 0.90625 1.75q0.828125 0.75 2.09375 0.671875q7.078125 -0.484375 12.5 -3.578125q5.015625 -2.90625 5.578125 -4.25q0.484375 1.234375 5.625 4.203125q5.53125 3.140625 12.796875 3.625q1.21875 0 1.953125 -0.71875q0.703125 -0.625 0.8125 -1.640625q0.078125 -1.046875 -0.609375 -1.84375q-0.78125 -0.78125 -1.9375 -0.78125q-6.90625 -0.390625 -11.59375 -3.546875q-4.40625 -2.953125 -4.40625 -6.84375l0 -0.71875l14.25 0q2.421875 0 2.421875 -2.453125q0 -2.421875 -2.421875 -2.421875zm3.4375 24.015625l-40.515625 0q-2.515625 0 -2.609375 2.359375q-0.109375 2.515625 2.40625 2.515625l17.796875 0l0 12.84375q0 1.1875 0.828125 2.015625q0.765625 0.65625 1.796875 0.65625q1.015625 0 1.75 -0.734375q0.859375 -0.78125 0.859375 -1.984375l0 -12.796875l17.796875 0q2.46875 0 2.46875 -2.5q-0.109375 -2.375 -2.578125 -2.375zm30.40625 -22.0625q0 7.609375 -5.265625 13.03125q-4.546875 4.6875 -10.671875 5.921875q-1.265625 0.25 -1.84375 1.078125q-0.65625 0.734375 -0.53125 1.828125q0.171875 1.03125 1.0625 1.625q0.890625 0.53125 2.09375 0.359375q6.625 -1.3125 12.015625 -6.25q5.171875 -4.65625 5.796875 -6.75q0.65625 2.046875 5.71875 6.734375q5.328125 4.90625 11.6874695 6.21875q1.265625 0.21875 2.25 -0.28125q0.984375 -0.59375 1.171875 -1.609375q0.296875 -1.0625 -0.40625 -1.984375q-0.6875 -0.84375 -1.859375 -1.078125q-6.4843445 -1.328125 -10.9374695 -5.921875q-5.046875 -5.25 -5.046875 -12.828125q0 -1.28125 -0.84375 -2.125q-0.75 -0.75 -1.765625 -0.75q-1.078125 0 -1.828125 0.75q-0.796875 0.796875 -0.796875 2.03125zm0 24.3125l0 9.671875l-17.59375 0q-1.125 0 -1.921875 0.6875q-0.640625 0.734375 -0.75 1.609375q-0.078125 0.96875 0.484375 1.71875q0.640625 0.859375 1.78125 0.859375l40.87497 0q1.125 0 1.875 -0.734375q0.75 -0.734375 0.75 -1.734375q0 -0.96875 -0.78125 -1.75q-0.765625 -0.65625 -1.890625 -0.65625l-17.59372 0l0 -9.46875q0 -1.25 -0.875 -1.96875q-0.71875 -0.703125 -1.6875 -0.703125q-1.046875 -0.078125 -1.796875 0.5625q-0.875 0.703125 -0.875 1.90625z" fill-rule="nonzero"/><path fill="#000000" d="m558.48694 188.24702l1212.9506 0l0 -83.274536l-1212.9506 0z" fill-rule="evenodd"/><path fill="#000000" fill-opacity="0.0" d="m565.81775 109.4504l1198.289 0l0 74.31873l-1198.289 0z" fill-rule="evenodd"/><path fill="#ffffff" d="m614.1013 164.65039l-7.3125 0l0 -27.578125q-4.015625 3.75 -9.453125 5.546875l0 -6.640625q2.859375 -0.9375 6.21875 -3.546875q3.359375 -2.625 4.609375 -6.1093674l5.9375 0l0 38.328117zm30.31482 -14.03125l0 -6.4375l16.609375 0l0 15.203125q-2.421875 2.34375 -7.015625 4.140625q-4.59375 1.78125 -9.3125 1.78125q-5.984375 0 -10.4375 -2.515625q-4.453125 -2.515625 -6.703125 -7.1875q-2.234375 -4.671875 -2.234375 -10.171875q0 -5.96875 2.5 -10.59375q2.5 -4.640625 7.328125 -7.1093674q3.671875 -1.90625 9.140625 -1.90625q7.09375 0 11.09375 2.9843674q4.0 2.984375 5.140625 8.25l-7.65625 1.421875q-0.796875 -2.8125 -3.03125 -4.4375q-2.21875 -1.625 -5.546875 -1.625q-5.0625 0 -8.046875 3.203125q-2.96875 3.203125 -2.96875 9.5q0 6.796875 3.015625 10.203125q3.015625 3.390625 7.921875 3.390625q2.421875 0 4.84375 -0.953125q2.4375 -0.953125 4.1875 -2.296875l0 -4.84375l-8.828125 0zm21.761597 1.609375l7.5 -0.734375q0.6875 3.78125 2.75 5.5625q2.078125 1.765625 5.59375 1.765625q3.71875 0 5.609375 -1.578125q1.890625 -1.578125 1.890625 -3.6875q0 -1.359375 -0.796875 -2.296875q-0.796875 -0.953125 -2.78125 -1.65625q-1.34375 -0.46875 -6.171875 -1.671875q-6.1875 -1.53125 -8.6875 -3.78125q-3.515625 -3.140625 -3.515625 -7.671875q0 -2.921875 1.640625 -5.453125q1.65625 -2.546875 4.765625 -3.8749924q3.125 -1.328125 7.515625 -1.328125q7.1875 0 10.8125 3.1562424q3.640625 3.15625 3.828125 8.40625l-7.703125 0.34375q-0.5 -2.9375 -2.125 -4.21875q-1.625 -1.296875 -4.890625 -1.296875q-3.359375 0 -5.25 1.375q-1.234375 0.890625 -1.234375 2.375q0 1.34375 1.15625 2.3125q1.453125 1.21875 7.078125 2.546875q5.625 1.328125 8.3125 2.75q2.703125 1.421875 4.21875 3.890625q1.53125 2.453125 1.53125 6.0625q0 3.28125 -1.828125 6.15625q-1.828125 2.859375 -5.15625 4.25q-3.328125 1.390625 -8.296875 1.390625q-7.25 0 -11.125 -3.34375q-3.875 -3.34375 -4.640625 -9.75zm36.069397 3.59375l7.078125 -0.78125q0.265625 2.15625 1.359375 3.203125q1.09375 1.046875 2.890625 1.046875q2.265625 0 3.84375 -2.078125q1.59375 -2.09375 2.046875 -8.65625q-2.765625 3.203125 -6.90625 3.203125q-4.5 0 -7.78125 -3.46875q-3.265625 -3.484375 -3.265625 -9.0625q0 -5.796875 3.453125 -9.34375q3.453125 -3.5624924 8.796875 -3.5624924q5.796875 0 9.515625 4.4999924q3.734375 4.484375 3.734375 14.765625q0 10.46875 -3.890625 15.109375q-3.875 4.625 -10.09375 4.625q-4.484375 0 -7.25 -2.375q-2.75 -2.390625 -3.53125 -7.125zm16.5625 -15.984375q0 -3.546875 -1.625 -5.5q-1.625 -1.953125 -3.765625 -1.953125q-2.03125 0 -3.375 1.609375q-1.34375 1.59375 -1.34375 5.234375q0 3.703125 1.453125 5.4375q1.46875 1.734375 3.65625 1.734375q2.109375 0 3.546875 -1.671875q1.453125 -1.671875 1.453125 -4.890625zm14.627319 24.8125l0 -38.171867l7.5 0l15.625 25.484367l0 -25.484367l7.15625 0l0 38.171867l-7.71875 0l-15.390625 -24.890625l0 24.890625l-7.171875 0zm36.933777 -9.8125l7.28125 -0.765625q0.3125 2.484375 1.84375 3.9375q1.546875 1.4375 3.546875 1.4375q2.296875 0 3.875 -1.859375q1.59375 -1.875 1.59375 -5.625q0 -3.515625 -1.578125 -5.265625q-1.5625 -1.765625 -4.09375 -1.765625q-3.15625 0 -5.65625 2.796875l-5.9375 -0.859375l3.75 -19.874992l19.359375 0l0 6.8593674l-13.8125 0l-1.140625 6.46875q2.453125 -1.21875 5.0 -1.21875q4.875 0 8.25 3.546875q3.390625 3.53125 3.390625 9.1875q0 4.71875 -2.734375 8.40625q-3.71875 5.0625 -10.34375 5.0625q-5.28125 0 -8.625 -2.84375q-3.328125 -2.84375 -3.96875 -7.625zm29.705444 0.984375l7.078125 -0.78125q0.265625 2.15625 1.359375 3.203125q1.09375 1.046875 2.890625 1.046875q2.265625 0 3.84375 -2.078125q1.59375 -2.09375 2.046875 -8.65625q-2.765625 3.203125 -6.90625 3.203125q-4.5 0 -7.78125 -3.46875q-3.265625 -3.484375 -3.265625 -9.0625q0 -5.796875 3.453125 -9.34375q3.453125 -3.5624924 8.796875 -3.5624924q5.796875 0 9.515625 4.4999924q3.734375 4.484375 3.734375 14.765625q0 10.46875 -3.890625 15.109375q-3.875 4.625 -10.09375 4.625q-4.484375 0 -7.25 -2.375q-2.75 -2.390625 -3.53125 -7.125zm16.5625 -15.984375q0 -3.546875 -1.625 -5.5q-1.625 -1.953125 -3.765625 -1.953125q-2.03125 0 -3.375 1.609375q-1.34375 1.59375 -1.34375 5.234375q0 3.703125 1.453125 5.4375q1.46875 1.734375 3.65625 1.734375q2.109375 0 3.546875 -1.671875q1.453125 -1.671875 1.453125 -4.890625zm13.096069 15.984375l7.078125 -0.78125q0.265625 2.15625 1.359375 3.203125q1.09375 1.046875 2.890625 1.046875q2.265625 0 3.84375 -2.078125q1.59375 -2.09375 2.046875 -8.65625q-2.765625 3.203125 -6.90625 3.203125q-4.5 0 -7.78125 -3.46875q-3.265625 -3.484375 -3.265625 -9.0625q0 -5.796875 3.453125 -9.34375q3.453125 -3.5624924 8.796875 -3.5624924q5.796875 0 9.515625 4.4999924q3.734375 4.484375 3.734375 14.765625q0 10.46875 -3.890625 15.109375q-3.875 4.625 -10.09375 4.625q-4.484375 0 -7.25 -2.375q-2.75 -2.390625 -3.53125 -7.125zm16.5625 -15.984375q0 -3.546875 -1.625 -5.5q-1.625 -1.953125 -3.765625 -1.953125q-2.03125 0 -3.375 1.609375q-1.34375 1.59375 -1.34375 5.234375q0 3.703125 1.453125 5.4375q1.46875 1.734375 3.65625 1.734375q2.109375 0 3.546875 -1.671875q1.453125 -1.671875 1.453125 -4.890625zm39.65857 24.8125l-7.3125 0l0 -14.109375q0 -4.484375 -0.46875 -5.796875q-0.46875 -1.3125 -1.53125 -2.046875q-1.046875 -0.734375 -2.53125 -0.734375q-1.90625 0 -3.421875 1.046875q-1.5 1.046875 -2.0625 2.765625q-0.5625 1.71875 -0.5625 6.34375l0 12.53125l-7.3125 0l0 -27.65625l6.796875 0l0 4.0625q3.609375 -4.6875 9.109375 -4.6875q2.421875 0 4.421875 0.875q2.015625 0.875 3.03125 2.234375q1.03125 1.34375 1.4375 3.0625q0.40625 1.71875 0.40625 4.921875l0 17.1875zm6.871826 -27.65625l6.75 0l0 3.78125q3.609375 -4.40625 8.609375 -4.40625q2.65625 0 4.609375 1.09375q1.953125 1.09375 3.203125 3.3125q1.828125 -2.21875 3.9375 -3.3125q2.109375 -1.09375 4.5 -1.09375q3.046875 0 5.15625 1.234375q2.109375 1.234375 3.15625 3.640625q0.75 1.765625 0.75 5.71875l0 17.6875l-7.3125 0l0 -15.8125q0 -4.109375 -0.765625 -5.3125q-1.015625 -1.5625 -3.125 -1.5625q-1.53125 0 -2.890625 0.9375q-1.34375 0.9375 -1.953125 2.75q-0.59375 1.8125 -0.59375 5.71875l0 13.28125l-7.3125 0l0 -15.15625q0 -4.03125 -0.390625 -5.203125q-0.390625 -1.171875 -1.21875 -1.75q-0.8125 -0.578125 -2.21875 -0.578125q-1.6875 0 -3.046875 0.921875q-1.359375 0.90625 -1.953125 2.625q-0.578125 1.71875 -0.578125 5.703125l0 13.4375l-7.3125 0l0 -27.65625zm73.12036 27.65625l-7.3125 0l0 -14.109375q0 -4.484375 -0.46875 -5.796875q-0.46875 -1.3125 -1.53125 -2.046875q-1.046875 -0.734375 -2.53125 -0.734375q-1.90625 0 -3.421875 1.046875q-1.5 1.046875 -2.0625 2.765625q-0.5625 1.71875 -0.5625 6.34375l0 12.53125l-7.3125 0l0 -27.65625l6.796875 0l0 4.0625q3.609375 -4.6875 9.109375 -4.6875q2.421875 0 4.421875 0.875q2.015625 0.875 3.03125 2.234375q1.03125 1.34375 1.4375 3.0625q0.40625 1.71875 0.40625 4.921875l0 17.1875zm7.449951 -38.171867l14.078125 0q4.765625 0 7.265625 0.734375q3.359375 0.9843674 5.75 3.5156174q2.40625 2.515625 3.65625 6.171875q1.25 3.65625 1.25 9.03125q0 4.703125 -1.171875 8.125q-1.4375 4.15625 -4.09375 6.734375q-2.0 1.953125 -5.40625 3.046875q-2.5625 0.8125 -6.828125 0.8125l-14.5 0l0 -38.171867zm7.703125 6.4531174l0 25.28125l5.75 0q3.234375 0 4.671875 -0.359375q1.875 -0.46875 3.109375 -1.578125q1.234375 -1.125 2.015625 -3.6875q0.78125 -2.578125 0.78125 -7.0q0 -4.421875 -0.78125 -6.78125q-0.78125 -2.375 -2.1875 -3.703125q-1.40625 -1.328125 -3.5625 -1.796875q-1.625 -0.375 -6.328125 -0.375l-3.46875 0zm30.85559 31.71875l0 -38.171867l7.703125 0l0 15.015617l15.109375 0l0 -15.015617l7.703125 0l0 38.171867l-7.703125 0l0 -16.6875l-15.109375 0l0 16.6875l-7.703125 0zm56.246216 -14.03125l0 -6.4375l16.609375 0l0 15.203125q-2.421875 2.34375 -7.015625 4.140625q-4.59375 1.78125 -9.3125 1.78125q-5.984375 0 -10.4375 -2.515625q-4.453125 -2.515625 -6.703125 -7.1875q-2.234375 -4.671875 -2.234375 -10.171875q0 -5.96875 2.5 -10.59375q2.5 -4.640625 7.328125 -7.1093674q3.671875 -1.90625 9.140625 -1.90625q7.09375 0 11.09375 2.9843674q4.0 2.984375 5.140625 8.25l-7.65625 1.421875q-0.796875 -2.8125 -3.03125 -4.4375q-2.21875 -1.625 -5.546875 -1.625q-5.0625 0 -8.046875 3.203125q-2.96875 3.203125 -2.96875 9.5q0 6.796875 3.015625 10.203125q3.015625 3.390625 7.921875 3.390625q2.421875 0 4.84375 -0.953125q2.4375 -0.953125 4.1875 -2.296875l0 -4.84375l-8.828125 0zm20.464722 -13.625l4.0625 0l0 -2.078125q0 -3.484375 0.734375 -5.203125q0.75 -1.7187424 2.734375 -2.7968674q2.0 -1.09375 5.046875 -1.09375q3.125 0 6.125 0.9375l-1.0 5.1093674q-1.734375 -0.421875 -3.359375 -0.421875q-1.578125 0 -2.28125 0.75q-0.6875 0.734375 -0.6875 2.84375l0 1.953125l5.46875 0l0 5.75l-5.46875 0l0 21.90625l-7.3125 0l0 -21.90625l-4.0625 0l0 -5.75zm20.414917 0l6.75 0l0 3.78125q3.609375 -4.40625 8.609375 -4.40625q2.65625 0 4.609375 1.09375q1.953125 1.09375 3.203125 3.3125q1.828125 -2.21875 3.9375 -3.3125q2.109375 -1.09375 4.5 -1.09375q3.046875 0 5.15625 1.234375q2.109375 1.234375 3.15625 3.640625q0.75 1.765625 0.75 5.71875l0 17.6875l-7.3125 0l0 -15.8125q0 -4.109375 -0.765625 -5.3125q-1.015625 -1.5625 -3.125 -1.5625q-1.53125 0 -2.890625 0.9375q-1.34375 0.9375 -1.953125 2.75q-0.59375 1.8125 -0.59375 5.71875l0 13.28125l-7.3125 0l0 -15.15625q0 -4.03125 -0.390625 -5.203125q-0.390625 -1.171875 -1.21875 -1.75q-0.8125 -0.578125 -2.21875 -0.578125q-1.6875 0 -3.046875 0.921875q-1.359375 0.90625 -1.953125 2.625q-0.578125 1.71875 -0.578125 5.703125l0 13.4375l-7.3125 0l0 -27.65625zm47.65161 27.65625l0 -38.171867l7.3125 0l0 13.749992q3.390625 -3.859375 8.03125 -3.859375q5.046875 0 8.34375 3.65625q3.3125 3.65625 3.3125 10.515625q0 7.078125 -3.375 10.90625q-3.359375 3.828125 -8.1875 3.828125q-2.359375 0 -4.671875 -1.1875q-2.296875 -1.1875 -3.96875 -3.5l0 4.0625l-6.796875 0zm7.265625 -14.421875q0 4.296875 1.359375 6.34375q1.890625 2.921875 5.046875 2.921875q2.421875 0 4.125 -2.0625q1.703125 -2.078125 1.703125 -6.53125q0 -4.734375 -1.71875 -6.828125q-1.71875 -2.109375 -4.390625 -2.109375q-2.640625 0 -4.390625 2.046875q-1.734375 2.046875 -1.734375 6.21875zm31.090576 14.421875l-9.109375 -38.171867l7.890625 0l5.75 26.218742l6.984375 -26.218742l9.15625 0l6.6875 26.656242l5.859375 -26.656242l7.765625 0l-9.265625 38.171867l-8.1875 0l-7.59375 -28.53125l-7.578125 28.53125l-8.359375 0zm45.02112 0l0 -38.171867l7.703125 0l0 16.953117l15.578125 -16.953117l10.359375 0l-14.375 14.859367l15.15625 23.3125l-9.96875 0l-10.5 -17.921875l-6.25 6.390625l0 11.53125l-7.703125 0zm56.433838 10.515625l0 -13.90625q-1.4375 1.859375 -3.578125 2.9375q-2.125 1.078125 -4.609375 1.078125q-4.703125 0 -7.75 -3.546875q-3.59375 -4.140625 -3.59375 -11.21875q0 -6.671875 3.359375 -10.40625q3.375 -3.734375 8.375 -3.734375q2.765625 0 4.78125 1.171875q2.015625 1.171875 3.578125 3.546875l0 -4.09375l6.75 0l0 38.171875l-7.3125 0zm0.234375 -24.6875q0 -4.234375 -1.734375 -6.296875q-1.734375 -2.078125 -4.34375 -2.078125q-2.65625 0 -4.4375 2.109375q-1.78125 2.109375 -1.78125 6.6875q0 4.5625 1.71875 6.578125q1.71875 2.015625 4.25 2.015625q2.515625 0 4.421875 -2.265625q1.90625 -2.265625 1.90625 -6.75zm14.309326 14.171875l0 -38.171867l12.375 0q7.03125 0 9.171875 0.578125q3.265625 0.859375 5.484375 3.7343674q2.21875 2.875 2.21875 7.421875q0 3.515625 -1.28125 5.921875q-1.28125 2.390625 -3.25 3.765625q-1.953125 1.359375 -3.984375 1.796875q-2.765625 0.546875 -8.0 0.546875l-5.015625 0l0 14.40625l-7.71875 0zm7.71875 -31.71875l0 10.828125l4.21875 0q4.546875 0 6.078125 -0.59375q1.546875 -0.59375 2.421875 -1.875q0.875 -1.28125 0.875 -2.96875q0 -2.078125 -1.234375 -3.421875q-1.21875 -1.359375 -3.09375 -1.703125q-1.375 -0.265625 -5.546875 -0.265625l-3.71875 0zm24.600708 4.0625l4.0625 0l0 -2.078125q0 -3.484375 0.734375 -5.203125q0.75 -1.7187424 2.734375 -2.7968674q2.0 -1.09375 5.046875 -1.09375q3.125 0 6.125 0.9375l-1.0 5.1093674q-1.734375 -0.421875 -3.359375 -0.421875q-1.578125 0 -2.28125 0.75q-0.6875 0.734375 -0.6875 2.84375l0 1.953125l5.46875 0l0 5.75l-5.46875 0l0 21.90625l-7.3125 0l0 -21.90625l-4.0625 0l0 -5.75zm55.430542 27.65625l-8.375 0l-3.328125 -8.671875l-15.265625 0l-3.15625 8.671875l-8.171875 0l14.875 -38.171867l8.140625 0l15.28125 38.171867zm-14.1875 -15.109375l-5.25 -14.15625l-5.15625 14.15625l10.40625 0zm18.183716 15.109375l0 -38.171867l11.53125 0l6.921875 26.031242l6.84375 -26.031242l11.5625 0l0 38.171867l-7.15625 0l0 -30.046875l-7.578125 30.046875l-7.421875 0l-7.546875 -30.046875l0 30.046875l-7.15625 0zm62.54773 10.515625l0 -13.90625q-1.4375 1.859375 -3.578125 2.9375q-2.125 1.078125 -4.609375 1.078125q-4.703125 0 -7.75 -3.546875q-3.59375 -4.140625 -3.59375 -11.21875q0 -6.671875 3.359375 -10.40625q3.375 -3.734375 8.375 -3.734375q2.765625 0 4.78125 1.171875q2.015625 1.171875 3.578125 3.546875l0 -4.09375l6.75 0l0 38.171875l-7.3125 0zm0.234375 -24.6875q0 -4.234375 -1.734375 -6.296875q-1.734375 -2.078125 -4.34375 -2.078125q-2.65625 0 -4.4375 2.109375q-1.78125 2.109375 -1.78125 6.6875q0 4.5625 1.71875 6.578125q1.71875 2.015625 4.25 2.015625q2.515625 0 4.421875 -2.265625q1.90625 -2.265625 1.90625 -6.75zm27.043701 14.171875l0 -7.6875l-15.625 0l0 -6.40625l16.5625 -24.234367l6.15625 0l0 24.218742l4.734375 0l0 6.421875l-4.734375 0l0 7.6875l-7.09375 0zm0 -14.109375l0 -13.046875l-8.765625 13.046875l8.765625 0zm42.236694 14.109375l-6.796875 0l0 -4.0625q-1.6875 2.375 -4.0 3.53125q-2.296875 1.15625 -4.640625 1.15625q-4.765625 0 -8.171875 -3.84375q-3.390625 -3.84375 -3.390625 -10.71875q0 -7.03125 3.296875 -10.6875q3.3125 -3.65625 8.375 -3.65625q4.625 0 8.015625 3.859375l0 -13.749992l7.3125 0l0 38.171867zm-19.53125 -14.421875q0 4.421875 1.234375 6.40625q1.765625 2.859375 4.9375 2.859375q2.53125 0 4.296875 -2.140625q1.78125 -2.15625 1.78125 -6.421875q0 -4.765625 -1.71875 -6.859375q-1.71875 -2.109375 -4.40625 -2.109375q-2.609375 0 -4.375 2.078125q-1.75 2.0625 -1.75 6.1875zm26.434326 14.421875l0 -38.171867l7.3125 0l0 13.749992q3.390625 -3.859375 8.03125 -3.859375q5.046875 0 8.34375 3.65625q3.3125 3.65625 3.3125 10.515625q0 7.078125 -3.375 10.90625q-3.359375 3.828125 -8.1875 3.828125q-2.359375 0 -4.671875 -1.1875q-2.296875 -1.1875 -3.96875 -3.5l0 4.0625l-6.796875 0zm7.265625 -14.421875q0 4.296875 1.359375 6.34375q1.890625 2.921875 5.046875 2.921875q2.421875 0 4.125 -2.0625q1.703125 -2.078125 1.703125 -6.53125q0 -4.734375 -1.71875 -6.828125q-1.71875 -2.109375 -4.390625 -2.109375q-2.640625 0 -4.390625 2.046875q-1.734375 2.046875 -1.734375 6.21875zm48.76245 7.625l0 6.796875l-25.640625 0q0.421875 -3.859375 2.5 -7.296875q2.078125 -3.453125 8.234375 -9.15625q4.9375 -4.609375 6.0625 -6.25q1.515625 -2.265625 1.515625 -4.484375q0 -2.4375 -1.328125 -3.75q-1.3125 -1.328125 -3.625 -1.328125q-2.296875 0 -3.65625 1.390625q-1.34375 1.375 -1.546875 4.578125l-7.296875 -0.734375q0.65625 -6.03125 4.09375 -8.65625q3.4375 -2.6406174 8.59375 -2.6406174q5.640625 0 8.859375 3.0468674q3.234375 3.046875 3.234375 7.578125q0 2.578125 -0.921875 4.90625q-0.921875 2.328125 -2.921875 4.875q-1.328125 1.703125 -4.796875 4.875q-3.453125 3.171875 -4.390625 4.21875q-0.921875 1.046875 -1.484375 2.03125l14.515625 0zm31.674194 6.796875l-7.3125 0l0 -14.109375q0 -4.484375 -0.46875 -5.796875q-0.46875 -1.3125 -1.53125 -2.046875q-1.046875 -0.734375 -2.53125 -0.734375q-1.90625 0 -3.421875 1.046875q-1.5 1.046875 -2.0625 2.765625q-0.5625 1.71875 -0.5625 6.34375l0 12.53125l-7.3125 0l0 -27.65625l6.796875 0l0 4.0625q3.609375 -4.6875 9.109375 -4.6875q2.421875 0 4.421875 0.875q2.015625 0.875 3.03125 2.234375q1.03125 1.34375 1.4375 3.0625q0.40625 1.71875 0.40625 4.921875l0 17.1875zm25.496826 10.515625l0 -13.90625q-1.4375 1.859375 -3.578125 2.9375q-2.125 1.078125 -4.609375 1.078125q-4.703125 0 -7.75 -3.546875q-3.59375 -4.140625 -3.59375 -11.21875q0 -6.671875 3.359375 -10.40625q3.375 -3.734375 8.375 -3.734375q2.765625 0 4.78125 1.171875q2.015625 1.171875 3.578125 3.546875l0 -4.09375l6.75 0l0 38.171875l-7.3125 0zm0.234375 -24.6875q0 -4.234375 -1.734375 -6.296875q-1.734375 -2.078125 -4.34375 -2.078125q-2.65625 0 -4.4375 2.109375q-1.78125 2.109375 -1.78125 6.6875q0 4.5625 1.71875 6.578125q1.71875 2.015625 4.25 2.015625q2.515625 0 4.421875 -2.265625q1.90625 -2.265625 1.90625 -6.75zm14.309326 14.171875l0 -38.171867l12.375 0q7.03125 0 9.171875 0.578125q3.265625 0.859375 5.484375 3.7343674q2.21875 2.875 2.21875 7.421875q0 3.515625 -1.28125 5.921875q-1.28125 2.390625 -3.25 3.765625q-1.953125 1.359375 -3.984375 1.796875q-2.765625 0.546875 -8.0 0.546875l-5.015625 0l0 14.40625l-7.71875 0zm7.71875 -31.71875l0 10.828125l4.21875 0q4.546875 0 6.078125 -0.59375q1.546875 -0.59375 2.421875 -1.875q0.875 -1.28125 0.875 -2.96875q0 -2.078125 -1.234375 -3.421875q-1.21875 -1.359375 -3.09375 -1.703125q-1.375 -0.265625 -5.546875 -0.265625l-3.71875 0zm34.803833 31.71875l-7.3125 0l0 -27.65625l6.796875 0l0 3.9375q1.75 -2.796875 3.140625 -3.671875q1.390625 -0.890625 3.15625 -0.890625q2.5 0 4.828125 1.390625l-2.265625 6.375q-1.859375 -1.203125 -3.4375 -1.203125q-1.546875 0 -2.609375 0.84375q-1.0625 0.84375 -1.6875 3.0625q-0.609375 2.21875 -0.609375 9.265625l0 8.546875zm13.753174 -31.40625l0 -6.7656174l7.3125 0l0 6.7656174l-7.3125 0zm0 31.40625l0 -27.65625l7.3125 0l0 27.65625l-7.3125 0z" fill-rule="nonzero"/><path fill="#000000" d="m558.48694 293.21964l1212.9506 0l0 -83.27455l-1212.9506 0z" fill-rule="evenodd"/><path fill="#000000" fill-opacity="0.0" d="m564.0527 214.42299l1201.8232 0l0 74.31874l-1201.8232 0z" fill-rule="evenodd"/><path fill="#ffffff" d="m641.3761 231.29486q5.546875 0 8.671875 3.953125q3.71875 4.6875 3.71875 15.546875q0 10.828125 -3.75 15.578125q-3.09375 3.90625 -8.640625 3.90625q-5.578125 0 -9.0 -4.28125q-3.40625 -4.296875 -3.40625 -15.28125q0 -10.78125 3.75 -15.515625q3.109375 -3.90625 8.65625 -3.90625zm0 6.0625q-1.328125 0 -2.375 0.859375q-1.046875 0.84375 -1.609375 3.03125q-0.765625 2.828125 -0.765625 9.546875q0 6.71875 0.671875 9.234375q0.6875 2.515625 1.71875 3.34375q1.03125 0.828125 2.359375 0.828125q1.328125 0 2.359375 -0.84375q1.046875 -0.84375 1.625 -3.03125q0.75 -2.8125 0.75 -9.53125q0 -6.71875 -0.6875 -9.21875q-0.671875 -2.515625 -1.703125 -3.359375q-1.015625 -0.859375 -2.34375 -0.859375zm15.330444 32.265625l9.96875 -14.25l-9.546875 -13.40625l8.921875 0l4.90625 7.609375l5.15625 -7.609375l8.578125 0l-9.359375 13.09375l10.21875 14.5625l-8.96875 0l-5.625 -8.5625l-5.6875 8.5625l-8.5625 0zm32.861694 0l0 -38.171875l7.3125 0l0 13.75q3.390625 -3.859375 8.03125 -3.859375q5.046875 0 8.34375 3.65625q3.3125 3.65625 3.3125 10.515625q0 7.078125 -3.375 10.90625q-3.359375 3.828125 -8.1875 3.828125q-2.359375 0 -4.671875 -1.1875q-2.296875 -1.1875 -3.96875 -3.5l0 4.0625l-6.796875 0zm7.265625 -14.421875q0 4.296875 1.359375 6.34375q1.890625 2.921875 5.046875 2.921875q2.421875 0 4.125 -2.0625q1.703125 -2.078125 1.703125 -6.53125q0 -4.734375 -1.71875 -6.828125q-1.71875 -2.109375 -4.390625 -2.109375q-2.640625 0 -4.390625 2.046875q-1.734375 2.046875 -1.734375 6.21875zm42.778076 14.421875l-7.3125 0l0 -27.578125q-4.015625 3.75 -9.453125 5.546875l0 -6.640625q2.859375 -0.9375 6.21875 -3.546875q3.359375 -2.625 4.609375 -6.109375l5.9375 0l0 38.328125zm25.28357 0l0 -7.6875l-15.625 0l0 -6.40625l16.5625 -24.234375l6.15625 0l0 24.21875l4.734375 0l0 6.421875l-4.734375 0l0 7.6875l-7.09375 0zm0 -14.109375l0 -13.046875l-8.765625 13.046875l8.765625 0zm27.68982 -24.21875q5.546875 0 8.671875 3.953125q3.71875 4.6875 3.71875 15.546875q0 10.828125 -3.75 15.578125q-3.09375 3.90625 -8.640625 3.90625q-5.578125 0 -9.0 -4.28125q-3.40625 -4.296875 -3.40625 -15.28125q0 -10.78125 3.75 -15.515625q3.109375 -3.90625 8.65625 -3.90625zm0 6.0625q-1.328125 0 -2.375 0.859375q-1.046875 0.84375 -1.609375 3.03125q-0.765625 2.828125 -0.765625 9.546875q0 6.71875 0.671875 9.234375q0.6875 2.515625 1.71875 3.34375q1.03125 0.828125 2.359375 0.828125q1.328125 0 2.359375 -0.84375q1.046875 -0.84375 1.625 -3.03125q0.75 -2.8125 0.75 -9.53125q0 -6.71875 -0.6875 -9.21875q-0.671875 -2.515625 -1.703125 -3.359375q-1.015625 -0.859375 -2.34375 -0.859375zm23.56482 11.671875q-2.84375 -1.203125 -4.140625 -3.296875q-1.28125 -2.09375 -1.28125 -4.59375q0 -4.265625 2.984375 -7.046875q2.984375 -2.796875 8.46875 -2.796875q5.453125 0 8.453125 2.796875q3.015625 2.78125 3.015625 7.046875q0 2.65625 -1.390625 4.734375q-1.375 2.0625 -3.875 3.15625q3.171875 1.265625 4.828125 3.71875q1.65625 2.453125 1.65625 5.65625q0 5.28125 -3.375 8.59375q-3.375 3.296875 -8.96875 3.296875q-5.203125 0 -8.671875 -2.734375q-4.09375 -3.21875 -4.09375 -8.84375q0 -3.109375 1.53125 -5.6875q1.546875 -2.59375 4.859375 -4.0zm1.5 -7.375q0 2.1875 1.234375 3.421875q1.25 1.21875 3.296875 1.21875q2.09375 0 3.34375 -1.234375q1.25 -1.25 1.25 -3.421875q0 -2.0625 -1.25 -3.296875q-1.234375 -1.234375 -3.265625 -1.234375q-2.109375 0 -3.359375 1.25q-1.25 1.25 -1.25 3.296875zm-0.671875 16.359375q0 3.015625 1.546875 4.71875q1.546875 1.6875 3.875 1.6875q2.265625 0 3.75 -1.625q1.484375 -1.640625 1.484375 -4.703125q0 -2.6875 -1.515625 -4.3125q-1.515625 -1.625 -3.828125 -1.625q-2.6875 0 -4.0 1.84375q-1.3125 1.84375 -1.3125 4.015625zm28.830444 -8.984375q-2.84375 -1.203125 -4.140625 -3.296875q-1.28125 -2.09375 -1.28125 -4.59375q0 -4.265625 2.984375 -7.046875q2.984375 -2.796875 8.46875 -2.796875q5.453125 0 8.453125 2.796875q3.015625 2.78125 3.015625 7.046875q0 2.65625 -1.390625 4.734375q-1.375 2.0625 -3.875 3.15625q3.171875 1.265625 4.828125 3.71875q1.65625 2.453125 1.65625 5.65625q0 5.28125 -3.375 8.59375q-3.375 3.296875 -8.96875 3.296875q-5.203125 0 -8.671875 -2.734375q-4.09375 -3.21875 -4.09375 -8.84375q0 -3.109375 1.53125 -5.6875q1.546875 -2.59375 4.859375 -4.0zm1.5 -7.375q0 2.1875 1.234375 3.421875q1.25 1.21875 3.296875 1.21875q2.09375 0 3.34375 -1.234375q1.25 -1.25 1.25 -3.421875q0 -2.0625 -1.25 -3.296875q-1.234375 -1.234375 -3.265625 -1.234375q-2.109375 0 -3.359375 1.25q-1.25 1.25 -1.25 3.296875zm-0.671875 16.359375q0 3.015625 1.546875 4.71875q1.546875 1.6875 3.875 1.6875q2.265625 0 3.75 -1.625q1.484375 -1.640625 1.484375 -4.703125q0 -2.6875 -1.515625 -4.3125q-1.515625 -1.625 -3.828125 -1.625q-2.6875 0 -4.0 1.84375q-1.3125 1.84375 -1.3125 4.015625zm22.549194 -19.25l0 -6.796875l25.015625 0l0 5.3125q-3.09375 3.046875 -6.296875 8.75q-3.203125 5.703125 -4.890625 12.125q-1.671875 6.421875 -1.640625 11.46875l-7.0625 0q0.1875 -7.921875 3.265625 -16.140625q3.09375 -8.234375 8.25 -14.71875l-16.640625 0zm44.00232 30.859375l0 -7.6875l-15.625 0l0 -6.40625l16.5625 -24.234375l6.15625 0l0 24.21875l4.734375 0l0 6.421875l-4.734375 0l0 7.6875l-7.09375 0zm0 -14.109375l0 -13.046875l-8.765625 13.046875l8.765625 0zm29.65857 14.109375l0 -7.6875l-15.625 0l0 -6.40625l16.5625 -24.234375l6.15625 0l0 24.21875l4.734375 0l0 6.421875l-4.734375 0l0 7.6875l-7.09375 0zm0 -14.109375l0 -13.046875l-8.765625 13.046875l8.765625 0zm21.59607 -6.484375q-2.84375 -1.203125 -4.140625 -3.296875q-1.28125 -2.09375 -1.28125 -4.59375q0 -4.265625 2.984375 -7.046875q2.984375 -2.796875 8.46875 -2.796875q5.453125 0 8.453125 2.796875q3.015625 2.78125 3.015625 7.046875q0 2.65625 -1.390625 4.734375q-1.375 2.0625 -3.875 3.15625q3.171875 1.265625 4.828125 3.71875q1.65625 2.453125 1.65625 5.65625q0 5.28125 -3.375 8.59375q-3.375 3.296875 -8.96875 3.296875q-5.203125 0 -8.671875 -2.734375q-4.09375 -3.21875 -4.09375 -8.84375q0 -3.109375 1.53125 -5.6875q1.546875 -2.59375 4.859375 -4.0zm1.5 -7.375q0 2.1875 1.234375 3.421875q1.25 1.21875 3.296875 1.21875q2.09375 0 3.34375 -1.234375q1.25 -1.25 1.25 -3.421875q0 -2.0625 -1.25 -3.296875q-1.234375 -1.234375 -3.265625 -1.234375q-2.109375 0 -3.359375 1.25q-1.25 1.25 -1.25 3.296875zm-0.671875 16.359375q0 3.015625 1.546875 4.71875q1.546875 1.6875 3.875 1.6875q2.265625 0 3.75 -1.625q1.484375 -1.640625 1.484375 -4.703125q0 -2.6875 -1.515625 -4.3125q-1.515625 -1.625 -3.828125 -1.625q-2.6875 0 -4.0 1.84375q-1.3125 1.84375 -1.3125 4.015625zm22.705444 2.78125l7.078125 -0.78125q0.265625 2.15625 1.359375 3.203125q1.09375 1.046875 2.890625 1.046875q2.265625 0 3.84375 -2.078125q1.59375 -2.09375 2.046875 -8.65625q-2.765625 3.203125 -6.90625 3.203125q-4.5 0 -7.78125 -3.46875q-3.265625 -3.484375 -3.265625 -9.0625q0 -5.796875 3.453125 -9.34375q3.453125 -3.5625 8.796875 -3.5625q5.796875 0 9.515625 4.5q3.734375 4.484375 3.734375 14.765625q0 10.46875 -3.890625 15.109375q-3.875 4.625 -10.09375 4.625q-4.484375 0 -7.25 -2.375q-2.75 -2.390625 -3.53125 -7.125zm16.5625 -15.984375q0 -3.546875 -1.625 -5.5q-1.625 -1.953125 -3.765625 -1.953125q-2.03125 0 -3.375 1.609375q-1.34375 1.59375 -1.34375 5.234375q0 3.703125 1.453125 5.4375q1.46875 1.734375 3.65625 1.734375q2.109375 0 3.546875 -1.671875q1.453125 -1.671875 1.453125 -4.890625zm37.72107 -4.015625l-7.078125 0.78125q-0.25 -2.1875 -1.34375 -3.21875q-1.09375 -1.046875 -2.84375 -1.046875q-2.3125 0 -3.921875 2.09375q-1.59375 2.078125 -2.015625 8.65625q2.734375 -3.234375 6.796875 -3.234375q4.578125 0 7.84375 3.5q3.265625 3.484375 3.265625 9.0q0 5.859375 -3.4375 9.40625q-3.421875 3.546875 -8.8125 3.546875q-5.78125 0 -9.515625 -4.484375q-3.71875 -4.5 -3.71875 -14.734375q0 -10.5 3.875 -15.125q3.890625 -4.640625 10.078125 -4.640625q4.359375 0 7.203125 2.4375q2.859375 2.4375 3.625 7.0625zm-16.578125 15.96875q0 3.5625 1.640625 5.5q1.640625 1.9375 3.75 1.9375q2.03125 0 3.375 -1.578125q1.359375 -1.59375 1.359375 -5.21875q0 -3.71875 -1.453125 -5.453125q-1.453125 -1.734375 -3.640625 -1.734375q-2.109375 0 -3.578125 1.65625q-1.453125 1.65625 -1.453125 4.890625zm21.18982 2.734375l7.09375 -0.859375q0.328125 2.703125 1.8125 4.140625q1.484375 1.421875 3.59375 1.421875q2.265625 0 3.8125 -1.71875q1.5625 -1.71875 1.5625 -4.625q0 -2.765625 -1.484375 -4.375q-1.484375 -1.625 -3.625 -1.625q-1.40625 0 -3.359375 0.546875l0.8125 -5.953125q2.96875 0.078125 4.53125 -1.28125q1.5625 -1.375 1.5625 -3.640625q0 -1.921875 -1.15625 -3.0625q-1.140625 -1.15625 -3.046875 -1.15625q-1.875 0 -3.203125 1.3125q-1.328125 1.296875 -1.609375 3.796875l-6.75 -1.15625q0.703125 -3.453125 2.125 -5.515625q1.421875 -2.078125 3.953125 -3.265625q2.546875 -1.1875 5.703125 -1.1875q5.390625 0 8.640625 3.4375q2.6875 2.8125 2.6875 6.359375q0 5.015625 -5.5 8.015625q3.28125 0.703125 5.234375 3.15625q1.96875 2.4375 1.96875 5.90625q0 5.015625 -3.671875 8.5625q-3.65625 3.546875 -9.125 3.546875q-5.1875 0 -8.609375 -2.984375q-3.40625 -2.984375 -3.953125 -7.796875zm29.65857 0l7.09375 -0.859375q0.328125 2.703125 1.8125 4.140625q1.484375 1.421875 3.59375 1.421875q2.265625 0 3.8125 -1.71875q1.5625 -1.71875 1.5625 -4.625q0 -2.765625 -1.484375 -4.375q-1.484375 -1.625 -3.625 -1.625q-1.40625 0 -3.359375 0.546875l0.8125 -5.953125q2.96875 0.078125 4.53125 -1.28125q1.5625 -1.375 1.5625 -3.640625q0 -1.921875 -1.15625 -3.0625q-1.140625 -1.15625 -3.046875 -1.15625q-1.875 0 -3.203125 1.3125q-1.328125 1.296875 -1.609375 3.796875l-6.75 -1.15625q0.703125 -3.453125 2.125 -5.515625q1.421875 -2.078125 3.953125 -3.265625q2.546875 -1.1875 5.703125 -1.1875q5.390625 0 8.640625 3.4375q2.6875 2.8125 2.6875 6.359375q0 5.015625 -5.5 8.015625q3.28125 0.703125 5.234375 3.15625q1.96875 2.4375 1.96875 5.90625q0 5.015625 -3.671875 8.5625q-3.65625 3.546875 -9.125 3.546875q-5.1875 0 -8.609375 -2.984375q-3.40625 -2.984375 -3.953125 -7.796875zm48.642944 10.125l-7.3125 0l0 -27.578125q-4.015625 3.75 -9.453125 5.546875l0 -6.640625q2.859375 -0.9375 6.21875 -3.546875q3.359375 -2.625 4.609375 -6.109375l5.9375 0l0 38.328125zm35.642944 -6.796875l0 6.796875l-25.640625 0q0.421875 -3.859375 2.5 -7.296875q2.078125 -3.453125 8.234375 -9.15625q4.9375 -4.609375 6.0625 -6.25q1.515625 -2.265625 1.515625 -4.484375q0 -2.4375 -1.328125 -3.75q-1.3125 -1.328125 -3.625 -1.328125q-2.296875 0 -3.65625 1.390625q-1.34375 1.375 -1.546875 4.578125l-7.296875 -0.734375q0.65625 -6.03125 4.09375 -8.65625q3.4375 -2.640625 8.59375 -2.640625q5.640625 0 8.859375 3.046875q3.234375 3.046875 3.234375 7.578125q0 2.578125 -0.921875 4.90625q-0.921875 2.328125 -2.921875 4.875q-1.328125 1.703125 -4.796875 4.875q-3.453125 3.171875 -4.390625 4.21875q-0.921875 1.046875 -1.484375 2.03125l14.515625 0zm29.736694 -22.03125l-7.078125 0.78125q-0.25 -2.1875 -1.34375 -3.21875q-1.09375 -1.046875 -2.84375 -1.046875q-2.3125 0 -3.921875 2.09375q-1.59375 2.078125 -2.015625 8.65625q2.734375 -3.234375 6.796875 -3.234375q4.578125 0 7.84375 3.5q3.265625 3.484375 3.265625 9.0q0 5.859375 -3.4375 9.40625q-3.421875 3.546875 -8.8125 3.546875q-5.78125 0 -9.515625 -4.484375q-3.71875 -4.5 -3.71875 -14.734375q0 -10.5 3.875 -15.125q3.890625 -4.640625 10.078125 -4.640625q4.359375 0 7.203125 2.4375q2.859375 2.4375 3.625 7.0625zm-16.578125 15.96875q0 3.5625 1.640625 5.5q1.640625 1.9375 3.75 1.9375q2.03125 0 3.375 -1.578125q1.359375 -1.59375 1.359375 -5.21875q0 -3.71875 -1.453125 -5.453125q-1.453125 -1.734375 -3.640625 -1.734375q-2.109375 0 -3.578125 1.65625q-1.453125 1.65625 -1.453125 4.890625zm27.736694 -7.734375q-2.84375 -1.203125 -4.140625 -3.296875q-1.28125 -2.09375 -1.28125 -4.59375q0 -4.265625 2.984375 -7.046875q2.984375 -2.796875 8.46875 -2.796875q5.453125 0 8.453125 2.796875q3.015625 2.78125 3.015625 7.046875q0 2.65625 -1.390625 4.734375q-1.375 2.0625 -3.875 3.15625q3.171875 1.265625 4.828125 3.71875q1.65625 2.453125 1.65625 5.65625q0 5.28125 -3.375 8.59375q-3.375 3.296875 -8.96875 3.296875q-5.203125 0 -8.671875 -2.734375q-4.09375 -3.21875 -4.09375 -8.84375q0 -3.109375 1.53125 -5.6875q1.546875 -2.59375 4.859375 -4.0zm1.5 -7.375q0 2.1875 1.234375 3.421875q1.25 1.21875 3.296875 1.21875q2.09375 0 3.34375 -1.234375q1.25 -1.25 1.25 -3.421875q0 -2.0625 -1.25 -3.296875q-1.234375 -1.234375 -3.265625 -1.234375q-2.109375 0 -3.359375 1.25q-1.25 1.25 -1.25 3.296875zm-0.671875 16.359375q0 3.015625 1.546875 4.71875q1.546875 1.6875 3.875 1.6875q2.265625 0 3.75 -1.625q1.484375 -1.640625 1.484375 -4.703125q0 -2.6875 -1.515625 -4.3125q-1.515625 -1.625 -3.828125 -1.625q-2.6875 0 -4.0 1.84375q-1.3125 1.84375 -1.3125 4.015625zm22.28357 1.484375l7.09375 -0.859375q0.328125 2.703125 1.8125 4.140625q1.484375 1.421875 3.59375 1.421875q2.265625 0 3.8125 -1.71875q1.5625 -1.71875 1.5625 -4.625q0 -2.765625 -1.484375 -4.375q-1.484375 -1.625 -3.625 -1.625q-1.40625 0 -3.359375 0.546875l0.8125 -5.953125q2.96875 0.078125 4.53125 -1.28125q1.5625 -1.375 1.5625 -3.640625q0 -1.921875 -1.15625 -3.0625q-1.140625 -1.15625 -3.046875 -1.15625q-1.875 0 -3.203125 1.3125q-1.328125 1.296875 -1.609375 3.796875l-6.75 -1.15625q0.703125 -3.453125 2.125 -5.515625q1.421875 -2.078125 3.953125 -3.265625q2.546875 -1.1875 5.703125 -1.1875q5.390625 0 8.640625 3.4375q2.6875 2.8125 2.6875 6.359375q0 5.015625 -5.5 8.015625q3.28125 0.703125 5.234375 3.15625q1.96875 2.4375 1.96875 5.90625q0 5.015625 -3.671875 8.5625q-3.65625 3.546875 -9.125 3.546875q-5.1875 0 -8.609375 -2.984375q-3.40625 -2.984375 -3.953125 -7.796875zm54.705444 -18.703125l-7.078125 0.78125q-0.25 -2.1875 -1.34375 -3.21875q-1.09375 -1.046875 -2.84375 -1.046875q-2.3125 0 -3.921875 2.09375q-1.59375 2.078125 -2.015625 8.65625q2.734375 -3.234375 6.796875 -3.234375q4.578125 0 7.84375 3.5q3.265625 3.484375 3.265625 9.0q0 5.859375 -3.4375 9.40625q-3.421875 3.546875 -8.8125 3.546875q-5.78125 0 -9.515625 -4.484375q-3.71875 -4.5 -3.71875 -14.734375q0 -10.5 3.875 -15.125q3.890625 -4.640625 10.078125 -4.640625q4.359375 0 7.203125 2.4375q2.859375 2.4375 3.625 7.0625zm-16.578125 15.96875q0 3.5625 1.640625 5.5q1.640625 1.9375 3.75 1.9375q2.03125 0 3.375 -1.578125q1.359375 -1.59375 1.359375 -5.21875q0 -3.71875 -1.453125 -5.453125q-1.453125 -1.734375 -3.640625 -1.734375q-2.109375 0 -3.578125 1.65625q-1.453125 1.65625 -1.453125 4.890625zm40.174194 12.859375l-7.3125 0l0 -27.578125q-4.015625 3.75 -9.453125 5.546875l0 -6.640625q2.859375 -0.9375 6.21875 -3.546875q3.359375 -2.625 4.609375 -6.109375l5.9375 0l0 38.328125zm23.31482 -38.328125q5.546875 0 8.671875 3.953125q3.71875 4.6875 3.71875 15.546875q0 10.828125 -3.75 15.578125q-3.09375 3.90625 -8.640625 3.90625q-5.578125 0 -9.0 -4.28125q-3.40625 -4.296875 -3.40625 -15.28125q0 -10.78125 3.75 -15.515625q3.109375 -3.90625 8.65625 -3.90625zm0 6.0625q-1.328125 0 -2.375 0.859375q-1.046875 0.84375 -1.609375 3.03125q-0.765625 2.828125 -0.765625 9.546875q0 6.71875 0.671875 9.234375q0.6875 2.515625 1.71875 3.34375q1.03125 0.828125 2.359375 0.828125q1.328125 0 2.359375 -0.84375q1.046875 -0.84375 1.625 -3.03125q0.75 -2.8125 0.75 -9.53125q0 -6.71875 -0.6875 -9.21875q-0.671875 -2.515625 -1.703125 -3.359375q-1.015625 -0.859375 -2.34375 -0.859375zm18.53357 32.265625l0 -38.171875l7.3125 0l0 13.75q3.390625 -3.859375 8.03125 -3.859375q5.046875 0 8.34375 3.65625q3.3125 3.65625 3.3125 10.515625q0 7.078125 -3.375 10.90625q-3.359375 3.828125 -8.1875 3.828125q-2.359375 0 -4.671875 -1.1875q-2.296875 -1.1875 -3.96875 -3.5l0 4.0625l-6.796875 0zm7.265625 -14.421875q0 4.296875 1.359375 6.34375q1.890625 2.921875 5.046875 2.921875q2.421875 0 4.125 -2.0625q1.703125 -2.078125 1.703125 -6.53125q0 -4.734375 -1.71875 -6.828125q-1.71875 -2.109375 -4.390625 -2.109375q-2.640625 0 -4.390625 2.046875q-1.734375 2.046875 -1.734375 6.21875zm24.059326 -16.4375l0 -6.796875l25.015625 0l0 5.3125q-3.09375 3.046875 -6.296875 8.75q-3.203125 5.703125 -4.890625 12.125q-1.671875 6.421875 -1.640625 11.46875l-7.0625 0q0.1875 -7.921875 3.265625 -16.140625q3.09375 -8.234375 8.25 -14.71875l-16.640625 0zm36.68982 11.640625l-6.640625 -1.203125q1.125 -4.0 3.859375 -5.921875q2.734375 -1.9375 8.125 -1.9375q4.890625 0 7.28125 1.15625q2.40625 1.15625 3.375 2.953125q0.984375 1.78125 0.984375 6.546875l-0.078125 8.53125q0 3.65625 0.34375 5.390625q0.34375 1.71875 1.3125 3.703125l-7.234375 0q-0.28125 -0.734375 -0.703125 -2.15625q-0.1875 -0.65625 -0.265625 -0.859375q-1.875 1.8125 -4.015625 2.734375q-2.125 0.90625 -4.546875 0.90625q-4.265625 0 -6.734375 -2.3125q-2.453125 -2.328125 -2.453125 -5.859375q0 -2.34375 1.109375 -4.171875q1.125 -1.84375 3.140625 -2.8125q2.015625 -0.984375 5.828125 -1.71875q5.125 -0.96875 7.109375 -1.796875l0 -0.734375q0 -2.109375 -1.046875 -3.0q-1.046875 -0.90625 -3.9375 -0.90625q-1.953125 0 -3.046875 0.78125q-1.09375 0.765625 -1.765625 2.6875zm9.796875 5.9375q-1.40625 0.46875 -4.453125 1.125q-3.046875 0.640625 -3.984375 1.265625q-1.4375 1.015625 -1.4375 2.578125q0 1.546875 1.140625 2.671875q1.15625 1.109375 2.921875 1.109375q1.984375 0 3.78125 -1.296875q1.328125 -1.0 1.734375 -2.421875q0.296875 -0.9375 0.296875 -3.578125l0 -1.453125zm25.205444 -25.046875q5.546875 0 8.671875 3.953125q3.71875 4.6875 3.71875 15.546875q0 10.828125 -3.75 15.578125q-3.09375 3.90625 -8.640625 3.90625q-5.578125 0 -9.0 -4.28125q-3.40625 -4.296875 -3.40625 -15.28125q0 -10.78125 3.75 -15.515625q3.109375 -3.90625 8.65625 -3.90625zm0 6.0625q-1.328125 0 -2.375 0.859375q-1.046875 0.84375 -1.609375 3.03125q-0.765625 2.828125 -0.765625 9.546875q0 6.71875 0.671875 9.234375q0.6875 2.515625 1.71875 3.34375q1.03125 0.828125 2.359375 0.828125q1.328125 0 2.359375 -0.84375q1.046875 -0.84375 1.625 -3.03125q0.75 -2.8125 0.75 -9.53125q0 -6.71875 -0.6875 -9.21875q-0.671875 -2.515625 -1.703125 -3.359375q-1.015625 -0.859375 -2.34375 -0.859375zm17.28357 1.40625l0 -6.796875l25.015625 0l0 5.3125q-3.09375 3.046875 -6.296875 8.75q-3.203125 5.703125 -4.890625 12.125q-1.671875 6.421875 -1.640625 11.46875l-7.0625 0q0.1875 -7.921875 3.265625 -16.140625q3.09375 -8.234375 8.25 -14.71875l-16.640625 0zm29.81482 22.03125l7.078125 -0.78125q0.265625 2.15625 1.359375 3.203125q1.09375 1.046875 2.890625 1.046875q2.265625 0 3.84375 -2.078125q1.59375 -2.09375 2.046875 -8.65625q-2.765625 3.203125 -6.90625 3.203125q-4.5 0 -7.78125 -3.46875q-3.265625 -3.484375 -3.265625 -9.0625q0 -5.796875 3.453125 -9.34375q3.453125 -3.5625 8.796875 -3.5625q5.796875 0 9.515625 4.5q3.734375 4.484375 3.734375 14.765625q0 10.46875 -3.890625 15.109375q-3.875 4.625 -10.09375 4.625q-4.484375 0 -7.25 -2.375q-2.75 -2.390625 -3.53125 -7.125zm16.5625 -15.984375q0 -3.546875 -1.625 -5.5q-1.625 -1.953125 -3.765625 -1.953125q-2.03125 0 -3.375 1.609375q-1.34375 1.59375 -1.34375 5.234375q0 3.703125 1.453125 5.4375q1.46875 1.734375 3.65625 1.734375q2.109375 0 3.546875 -1.671875q1.453125 -1.671875 1.453125 -4.890625zm13.049194 15.0l7.28125 -0.765625q0.3125 2.484375 1.84375 3.9375q1.546875 1.4375 3.546875 1.4375q2.296875 0 3.875 -1.859375q1.59375 -1.875 1.59375 -5.625q0 -3.515625 -1.578125 -5.265625q-1.5625 -1.765625 -4.09375 -1.765625q-3.15625 0 -5.65625 2.796875l-5.9375 -0.859375l3.75 -19.875l19.359375 0l0 6.859375l-13.8125 0l-1.140625 6.46875q2.453125 -1.21875 5.0 -1.21875q4.875 0 8.25 3.546875q3.390625 3.53125 3.390625 9.1875q0 4.71875 -2.734375 8.40625q-3.71875 5.0625 -10.34375 5.0625q-5.28125 0 -8.625 -2.84375q-3.328125 -2.84375 -3.96875 -7.625zm29.28357 -0.3125l7.09375 -0.859375q0.328125 2.703125 1.8125 4.140625q1.484375 1.421875 3.59375 1.421875q2.265625 0 3.8125 -1.71875q1.5625 -1.71875 1.5625 -4.625q0 -2.765625 -1.484375 -4.375q-1.484375 -1.625 -3.625 -1.625q-1.40625 0 -3.359375 0.546875l0.8125 -5.953125q2.96875 0.078125 4.53125 -1.28125q1.5625 -1.375 1.5625 -3.640625q0 -1.921875 -1.15625 -3.0625q-1.140625 -1.15625 -3.046875 -1.15625q-1.875 0 -3.203125 1.3125q-1.328125 1.296875 -1.609375 3.796875l-6.75 -1.15625q0.703125 -3.453125 2.125 -5.515625q1.421875 -2.078125 3.953125 -3.265625q2.546875 -1.1875 5.703125 -1.1875q5.390625 0 8.640625 3.4375q2.6875 2.8125 2.6875 6.359375q0 5.015625 -5.5 8.015625q3.28125 0.703125 5.234375 3.15625q1.96875 2.4375 1.96875 5.90625q0 5.015625 -3.671875 8.5625q-3.65625 3.546875 -9.125 3.546875q-5.1875 0 -8.609375 -2.984375q-3.40625 -2.984375 -3.953125 -7.796875zm55.59607 -9.359375l-7.203125 1.3125q-0.375 -2.171875 -1.671875 -3.265625q-1.28125 -1.09375 -3.328125 -1.09375q-2.734375 0 -4.375 1.890625q-1.625 1.890625 -1.625 6.3125q0 4.921875 1.65625 6.953125q1.65625 2.03125 4.4375 2.03125q2.09375 0 3.421875 -1.171875q1.328125 -1.1875 1.875 -4.078125l7.171875 1.21875q-1.109375 4.953125 -4.296875 7.484375q-3.171875 2.515625 -8.5 2.515625q-6.078125 0 -9.6875 -3.828125q-3.59375 -3.828125 -3.59375 -10.59375q0 -6.859375 3.609375 -10.671875q3.625 -3.8125 9.796875 -3.8125q5.046875 0 8.03125 2.171875q2.984375 2.171875 4.28125 6.625zm5.2365723 19.484375l0 -38.171875l7.3125 0l0 13.75q3.390625 -3.859375 8.03125 -3.859375q5.046875 0 8.34375 3.65625q3.3125 3.65625 3.3125 10.515625q0 7.078125 -3.375 10.90625q-3.359375 3.828125 -8.1875 3.828125q-2.359375 0 -4.671875 -1.1875q-2.296875 -1.1875 -3.96875 -3.5l0 4.0625l-6.796875 0zm7.265625 -14.421875q0 4.296875 1.359375 6.34375q1.890625 2.921875 5.046875 2.921875q2.421875 0 4.125 -2.0625q1.703125 -2.078125 1.703125 -6.53125q0 -4.734375 -1.71875 -6.828125q-1.71875 -2.109375 -4.390625 -2.109375q-2.640625 0 -4.390625 2.046875q-1.734375 2.046875 -1.734375 6.21875zm49.7312 -5.0625l-7.203125 1.3125q-0.375 -2.171875 -1.671875 -3.265625q-1.28125 -1.09375 -3.328125 -1.09375q-2.734375 0 -4.375 1.890625q-1.625 1.890625 -1.625 6.3125q0 4.921875 1.65625 6.953125q1.65625 2.03125 4.4375 2.03125q2.09375 0 3.421875 -1.171875q1.328125 -1.1875 1.875 -4.078125l7.171875 1.21875q-1.109375 4.953125 -4.296875 7.484375q-3.171875 2.515625 -8.5 2.515625q-6.078125 0 -9.6875 -3.828125q-3.59375 -3.828125 -3.59375 -10.59375q0 -6.859375 3.609375 -10.671875q3.625 -3.8125 9.796875 -3.8125q5.046875 0 8.03125 2.171875q2.984375 2.171875 4.28125 6.625zm18.330566 19.484375l0 -7.6875l-15.625 0l0 -6.40625l16.5625 -24.234375l6.15625 0l0 24.21875l4.734375 0l0 6.421875l-4.734375 0l0 7.6875l-7.09375 0zm0 -14.109375l0 -13.046875l-8.765625 13.046875l8.765625 0z" fill-rule="nonzero"/><path fill="#000000" d="m558.48694 398.19223l1212.9506 0l0 -83.274536l-1212.9506 0z" fill-rule="evenodd"/><path fill="#000000" fill-opacity="0.0" d="m564.0527 319.3956l1201.8232 0l0 74.318726l-1201.8232 0z" fill-rule="evenodd"/><path fill="#ffffff" d="m641.3761 336.26746q5.546875 0 8.671875 3.953125q3.71875 4.6875 3.71875 15.546875q0 10.828125 -3.75 15.578125q-3.09375 3.90625 -8.640625 3.90625q-5.578125 0 -9.0 -4.28125q-3.40625 -4.296875 -3.40625 -15.28125q0 -10.78125 3.75 -15.515625q3.109375 -3.90625 8.65625 -3.90625zm0 6.0625q-1.328125 0 -2.375 0.859375q-1.046875 0.84375 -1.609375 3.03125q-0.765625 2.828125 -0.765625 9.546875q0 6.71875 0.671875 9.234375q0.6875 2.515625 1.71875 3.34375q1.03125 0.828125 2.359375 0.828125q1.328125 0 2.359375 -0.84375q1.046875 -0.84375 1.625 -3.03125q0.75 -2.8125 0.75 -9.53125q0 -6.71875 -0.6875 -9.21875q-0.671875 -2.515625 -1.703125 -3.359375q-1.015625 -0.859375 -2.34375 -0.859375zm15.330444 32.265625l9.96875 -14.25l-9.546875 -13.40625l8.921875 0l4.90625 7.609375l5.15625 -7.609375l8.578125 0l-9.359375 13.09375l10.21875 14.5625l-8.96875 0l-5.625 -8.5625l-5.6875 8.5625l-8.5625 0zm32.861694 0l0 -38.171875l7.3125 0l0 13.75q3.390625 -3.859375 8.03125 -3.859375q5.046875 0 8.34375 3.65625q3.3125 3.65625 3.3125 10.515625q0 7.078125 -3.375 10.90625q-3.359375 3.828125 -8.1875 3.828125q-2.359375 0 -4.671875 -1.1875q-2.296875 -1.1875 -3.96875 -3.5l0 4.0625l-6.796875 0zm7.265625 -14.421875q0 4.296875 1.359375 6.34375q1.890625 2.921875 5.046875 2.921875q2.421875 0 4.125 -2.0625q1.703125 -2.078125 1.703125 -6.53125q0 -4.734375 -1.71875 -6.828125q-1.71875 -2.109375 -4.390625 -2.109375q-2.640625 0 -4.390625 2.046875q-1.734375 2.046875 -1.734375 6.21875zm42.778076 14.421875l-7.3125 0l0 -27.578125q-4.015625 3.75 -9.453125 5.546875l0 -6.640625q2.859375 -0.9375 6.21875 -3.546875q3.359375 -2.625 4.609375 -6.109375l5.9375 0l0 38.328125zm25.28357 0l0 -7.6875l-15.625 0l0 -6.40625l16.5625 -24.234375l6.15625 0l0 24.21875l4.734375 0l0 6.421875l-4.734375 0l0 7.6875l-7.09375 0zm0 -14.109375l0 -13.046875l-8.765625 13.046875l8.765625 0zm27.68982 -24.21875q5.546875 0 8.671875 3.953125q3.71875 4.6875 3.71875 15.546875q0 10.828125 -3.75 15.578125q-3.09375 3.90625 -8.640625 3.90625q-5.578125 0 -9.0 -4.28125q-3.40625 -4.296875 -3.40625 -15.28125q0 -10.78125 3.75 -15.515625q3.109375 -3.90625 8.65625 -3.90625zm0 6.0625q-1.328125 0 -2.375 0.859375q-1.046875 0.84375 -1.609375 3.03125q-0.765625 2.828125 -0.765625 9.546875q0 6.71875 0.671875 9.234375q0.6875 2.515625 1.71875 3.34375q1.03125 0.828125 2.359375 0.828125q1.328125 0 2.359375 -0.84375q1.046875 -0.84375 1.625 -3.03125q0.75 -2.8125 0.75 -9.53125q0 -6.71875 -0.6875 -9.21875q-0.671875 -2.515625 -1.703125 -3.359375q-1.015625 -0.859375 -2.34375 -0.859375zm23.56482 11.671875q-2.84375 -1.203125 -4.140625 -3.296875q-1.28125 -2.09375 -1.28125 -4.59375q0 -4.265625 2.984375 -7.046875q2.984375 -2.796875 8.46875 -2.796875q5.453125 0 8.453125 2.796875q3.015625 2.78125 3.015625 7.046875q0 2.65625 -1.390625 4.734375q-1.375 2.0625 -3.875 3.15625q3.171875 1.265625 4.828125 3.71875q1.65625 2.453125 1.65625 5.65625q0 5.28125 -3.375 8.59375q-3.375 3.296875 -8.96875 3.296875q-5.203125 0 -8.671875 -2.734375q-4.09375 -3.21875 -4.09375 -8.84375q0 -3.109375 1.53125 -5.6875q1.546875 -2.59375 4.859375 -4.0zm1.5 -7.375q0 2.1875 1.234375 3.421875q1.25 1.21875 3.296875 1.21875q2.09375 0 3.34375 -1.234375q1.25 -1.25 1.25 -3.421875q0 -2.0625 -1.25 -3.296875q-1.234375 -1.234375 -3.265625 -1.234375q-2.109375 0 -3.359375 1.25q-1.25 1.25 -1.25 3.296875zm-0.671875 16.359375q0 3.015625 1.546875 4.71875q1.546875 1.6875 3.875 1.6875q2.265625 0 3.75 -1.625q1.484375 -1.640625 1.484375 -4.703125q0 -2.6875 -1.515625 -4.3125q-1.515625 -1.625 -3.828125 -1.625q-2.6875 0 -4.0 1.84375q-1.3125 1.84375 -1.3125 4.015625zm28.830444 -8.984375q-2.84375 -1.203125 -4.140625 -3.296875q-1.28125 -2.09375 -1.28125 -4.59375q0 -4.265625 2.984375 -7.046875q2.984375 -2.796875 8.46875 -2.796875q5.453125 0 8.453125 2.796875q3.015625 2.78125 3.015625 7.046875q0 2.65625 -1.390625 4.734375q-1.375 2.0625 -3.875 3.15625q3.171875 1.265625 4.828125 3.71875q1.65625 2.453125 1.65625 5.65625q0 5.28125 -3.375 8.59375q-3.375 3.296875 -8.96875 3.296875q-5.203125 0 -8.671875 -2.734375q-4.09375 -3.21875 -4.09375 -8.84375q0 -3.109375 1.53125 -5.6875q1.546875 -2.59375 4.859375 -4.0zm1.5 -7.375q0 2.1875 1.234375 3.421875q1.25 1.21875 3.296875 1.21875q2.09375 0 3.34375 -1.234375q1.25 -1.25 1.25 -3.421875q0 -2.0625 -1.25 -3.296875q-1.234375 -1.234375 -3.265625 -1.234375q-2.109375 0 -3.359375 1.25q-1.25 1.25 -1.25 3.296875zm-0.671875 16.359375q0 3.015625 1.546875 4.71875q1.546875 1.6875 3.875 1.6875q2.265625 0 3.75 -1.625q1.484375 -1.640625 1.484375 -4.703125q0 -2.6875 -1.515625 -4.3125q-1.515625 -1.625 -3.828125 -1.625q-2.6875 0 -4.0 1.84375q-1.3125 1.84375 -1.3125 4.015625zm22.549194 -19.25l0 -6.796875l25.015625 0l0 5.3125q-3.09375 3.046875 -6.296875 8.75q-3.203125 5.703125 -4.890625 12.125q-1.671875 6.421875 -1.640625 11.46875l-7.0625 0q0.1875 -7.921875 3.265625 -16.140625q3.09375 -8.234375 8.25 -14.71875l-16.640625 0zm44.00232 30.859375l0 -7.6875l-15.625 0l0 -6.40625l16.5625 -24.234375l6.15625 0l0 24.21875l4.734375 0l0 6.421875l-4.734375 0l0 7.6875l-7.09375 0zm0 -14.109375l0 -13.046875l-8.765625 13.046875l8.765625 0zm29.65857 14.109375l0 -7.6875l-15.625 0l0 -6.40625l16.5625 -24.234375l6.15625 0l0 24.21875l4.734375 0l0 6.421875l-4.734375 0l0 7.6875l-7.09375 0zm0 -14.109375l0 -13.046875l-8.765625 13.046875l8.765625 0zm21.59607 -6.484375q-2.84375 -1.203125 -4.140625 -3.296875q-1.28125 -2.09375 -1.28125 -4.59375q0 -4.265625 2.984375 -7.046875q2.984375 -2.796875 8.46875 -2.796875q5.453125 0 8.453125 2.796875q3.015625 2.78125 3.015625 7.046875q0 2.65625 -1.390625 4.734375q-1.375 2.0625 -3.875 3.15625q3.171875 1.265625 4.828125 3.71875q1.65625 2.453125 1.65625 5.65625q0 5.28125 -3.375 8.59375q-3.375 3.296875 -8.96875 3.296875q-5.203125 0 -8.671875 -2.734375q-4.09375 -3.21875 -4.09375 -8.84375q0 -3.109375 1.53125 -5.6875q1.546875 -2.59375 4.859375 -4.0zm1.5 -7.375q0 2.1875 1.234375 3.421875q1.25 1.21875 3.296875 1.21875q2.09375 0 3.34375 -1.234375q1.25 -1.25 1.25 -3.421875q0 -2.0625 -1.25 -3.296875q-1.234375 -1.234375 -3.265625 -1.234375q-2.109375 0 -3.359375 1.25q-1.25 1.25 -1.25 3.296875zm-0.671875 16.359375q0 3.015625 1.546875 4.71875q1.546875 1.6875 3.875 1.6875q2.265625 0 3.75 -1.625q1.484375 -1.640625 1.484375 -4.703125q0 -2.6875 -1.515625 -4.3125q-1.515625 -1.625 -3.828125 -1.625q-2.6875 0 -4.0 1.84375q-1.3125 1.84375 -1.3125 4.015625zm22.705444 2.78125l7.078125 -0.78125q0.265625 2.15625 1.359375 3.203125q1.09375 1.046875 2.890625 1.046875q2.265625 0 3.84375 -2.078125q1.59375 -2.09375 2.046875 -8.65625q-2.765625 3.203125 -6.90625 3.203125q-4.5 0 -7.78125 -3.46875q-3.265625 -3.484375 -3.265625 -9.0625q0 -5.796875 3.453125 -9.34375q3.453125 -3.5625 8.796875 -3.5625q5.796875 0 9.515625 4.5q3.734375 4.484375 3.734375 14.765625q0 10.46875 -3.890625 15.109375q-3.875 4.625 -10.09375 4.625q-4.484375 0 -7.25 -2.375q-2.75 -2.390625 -3.53125 -7.125zm16.5625 -15.984375q0 -3.546875 -1.625 -5.5q-1.625 -1.953125 -3.765625 -1.953125q-2.03125 0 -3.375 1.609375q-1.34375 1.59375 -1.34375 5.234375q0 3.703125 1.453125 5.4375q1.46875 1.734375 3.65625 1.734375q2.109375 0 3.546875 -1.671875q1.453125 -1.671875 1.453125 -4.890625zm37.72107 -4.015625l-7.078125 0.78125q-0.25 -2.1875 -1.34375 -3.21875q-1.09375 -1.046875 -2.84375 -1.046875q-2.3125 0 -3.921875 2.09375q-1.59375 2.078125 -2.015625 8.65625q2.734375 -3.234375 6.796875 -3.234375q4.578125 0 7.84375 3.5q3.265625 3.484375 3.265625 9.0q0 5.859375 -3.4375 9.40625q-3.421875 3.546875 -8.8125 3.546875q-5.78125 0 -9.515625 -4.484375q-3.71875 -4.5 -3.71875 -14.734375q0 -10.5 3.875 -15.125q3.890625 -4.640625 10.078125 -4.640625q4.359375 0 7.203125 2.4375q2.859375 2.4375 3.625 7.0625zm-16.578125 15.96875q0 3.5625 1.640625 5.5q1.640625 1.9375 3.75 1.9375q2.03125 0 3.375 -1.578125q1.359375 -1.59375 1.359375 -5.21875q0 -3.71875 -1.453125 -5.453125q-1.453125 -1.734375 -3.640625 -1.734375q-2.109375 0 -3.578125 1.65625q-1.453125 1.65625 -1.453125 4.890625zm21.18982 2.734375l7.09375 -0.859375q0.328125 2.703125 1.8125 4.140625q1.484375 1.421875 3.59375 1.421875q2.265625 0 3.8125 -1.71875q1.5625 -1.71875 1.5625 -4.625q0 -2.765625 -1.484375 -4.375q-1.484375 -1.625 -3.625 -1.625q-1.40625 0 -3.359375 0.546875l0.8125 -5.953125q2.96875 0.078125 4.53125 -1.28125q1.5625 -1.375 1.5625 -3.640625q0 -1.921875 -1.15625 -3.0625q-1.140625 -1.15625 -3.046875 -1.15625q-1.875 0 -3.203125 1.3125q-1.328125 1.296875 -1.609375 3.796875l-6.75 -1.15625q0.703125 -3.453125 2.125 -5.515625q1.421875 -2.078125 3.953125 -3.265625q2.546875 -1.1875 5.703125 -1.1875q5.390625 0 8.640625 3.4375q2.6875 2.8125 2.6875 6.359375q0 5.015625 -5.5 8.015625q3.28125 0.703125 5.234375 3.15625q1.96875 2.4375 1.96875 5.90625q0 5.015625 -3.671875 8.5625q-3.65625 3.546875 -9.125 3.546875q-5.1875 0 -8.609375 -2.984375q-3.40625 -2.984375 -3.953125 -7.796875zm29.65857 0l7.09375 -0.859375q0.328125 2.703125 1.8125 4.140625q1.484375 1.421875 3.59375 1.421875q2.265625 0 3.8125 -1.71875q1.5625 -1.71875 1.5625 -4.625q0 -2.765625 -1.484375 -4.375q-1.484375 -1.625 -3.625 -1.625q-1.40625 0 -3.359375 0.546875l0.8125 -5.953125q2.96875 0.078125 4.53125 -1.28125q1.5625 -1.375 1.5625 -3.640625q0 -1.921875 -1.15625 -3.0625q-1.140625 -1.15625 -3.046875 -1.15625q-1.875 0 -3.203125 1.3125q-1.328125 1.296875 -1.609375 3.796875l-6.75 -1.15625q0.703125 -3.453125 2.125 -5.515625q1.421875 -2.078125 3.953125 -3.265625q2.546875 -1.1875 5.703125 -1.1875q5.390625 0 8.640625 3.4375q2.6875 2.8125 2.6875 6.359375q0 5.015625 -5.5 8.015625q3.28125 0.703125 5.234375 3.15625q1.96875 2.4375 1.96875 5.90625q0 5.015625 -3.671875 8.5625q-3.65625 3.546875 -9.125 3.546875q-5.1875 0 -8.609375 -2.984375q-3.40625 -2.984375 -3.953125 -7.796875zm48.642944 10.125l-7.3125 0l0 -27.578125q-4.015625 3.75 -9.453125 5.546875l0 -6.640625q2.859375 -0.9375 6.21875 -3.546875q3.359375 -2.625 4.609375 -6.109375l5.9375 0l0 38.328125zm35.642944 -6.796875l0 6.796875l-25.640625 0q0.421875 -3.859375 2.5 -7.296875q2.078125 -3.453125 8.234375 -9.15625q4.9375 -4.609375 6.0625 -6.25q1.515625 -2.265625 1.515625 -4.484375q0 -2.4375 -1.328125 -3.75q-1.3125 -1.328125 -3.625 -1.328125q-2.296875 0 -3.65625 1.390625q-1.34375 1.375 -1.546875 4.578125l-7.296875 -0.734375q0.65625 -6.03125 4.09375 -8.65625q3.4375 -2.640625 8.59375 -2.640625q5.640625 0 8.859375 3.046875q3.234375 3.046875 3.234375 7.578125q0 2.578125 -0.921875 4.90625q-0.921875 2.328125 -2.921875 4.875q-1.328125 1.703125 -4.796875 4.875q-3.453125 3.171875 -4.390625 4.21875q-0.921875 1.046875 -1.484375 2.03125l14.515625 0zm29.736694 -22.03125l-7.078125 0.78125q-0.25 -2.1875 -1.34375 -3.21875q-1.09375 -1.046875 -2.84375 -1.046875q-2.3125 0 -3.921875 2.09375q-1.59375 2.078125 -2.015625 8.65625q2.734375 -3.234375 6.796875 -3.234375q4.578125 0 7.84375 3.5q3.265625 3.484375 3.265625 9.0q0 5.859375 -3.4375 9.40625q-3.421875 3.546875 -8.8125 3.546875q-5.78125 0 -9.515625 -4.484375q-3.71875 -4.5 -3.71875 -14.734375q0 -10.5 3.875 -15.125q3.890625 -4.640625 10.078125 -4.640625q4.359375 0 7.203125 2.4375q2.859375 2.4375 3.625 7.0625zm-16.578125 15.96875q0 3.5625 1.640625 5.5q1.640625 1.9375 3.75 1.9375q2.03125 0 3.375 -1.578125q1.359375 -1.59375 1.359375 -5.21875q0 -3.71875 -1.453125 -5.453125q-1.453125 -1.734375 -3.640625 -1.734375q-2.109375 0 -3.578125 1.65625q-1.453125 1.65625 -1.453125 4.890625zm27.736694 -7.734375q-2.84375 -1.203125 -4.140625 -3.296875q-1.28125 -2.09375 -1.28125 -4.59375q0 -4.265625 2.984375 -7.046875q2.984375 -2.796875 8.46875 -2.796875q5.453125 0 8.453125 2.796875q3.015625 2.78125 3.015625 7.046875q0 2.65625 -1.390625 4.734375q-1.375 2.0625 -3.875 3.15625q3.171875 1.265625 4.828125 3.71875q1.65625 2.453125 1.65625 5.65625q0 5.28125 -3.375 8.59375q-3.375 3.296875 -8.96875 3.296875q-5.203125 0 -8.671875 -2.734375q-4.09375 -3.21875 -4.09375 -8.84375q0 -3.109375 1.53125 -5.6875q1.546875 -2.59375 4.859375 -4.0zm1.5 -7.375q0 2.1875 1.234375 3.421875q1.25 1.21875 3.296875 1.21875q2.09375 0 3.34375 -1.234375q1.25 -1.25 1.25 -3.421875q0 -2.0625 -1.25 -3.296875q-1.234375 -1.234375 -3.265625 -1.234375q-2.109375 0 -3.359375 1.25q-1.25 1.25 -1.25 3.296875zm-0.671875 16.359375q0 3.015625 1.546875 4.71875q1.546875 1.6875 3.875 1.6875q2.265625 0 3.75 -1.625q1.484375 -1.640625 1.484375 -4.703125q0 -2.6875 -1.515625 -4.3125q-1.515625 -1.625 -3.828125 -1.625q-2.6875 0 -4.0 1.84375q-1.3125 1.84375 -1.3125 4.015625zm22.28357 1.484375l7.09375 -0.859375q0.328125 2.703125 1.8125 4.140625q1.484375 1.421875 3.59375 1.421875q2.265625 0 3.8125 -1.71875q1.5625 -1.71875 1.5625 -4.625q0 -2.765625 -1.484375 -4.375q-1.484375 -1.625 -3.625 -1.625q-1.40625 0 -3.359375 0.546875l0.8125 -5.953125q2.96875 0.078125 4.53125 -1.28125q1.5625 -1.375 1.5625 -3.640625q0 -1.921875 -1.15625 -3.0625q-1.140625 -1.15625 -3.046875 -1.15625q-1.875 0 -3.203125 1.3125q-1.328125 1.296875 -1.609375 3.796875l-6.75 -1.15625q0.703125 -3.453125 2.125 -5.515625q1.421875 -2.078125 3.953125 -3.265625q2.546875 -1.1875 5.703125 -1.1875q5.390625 0 8.640625 3.4375q2.6875 2.8125 2.6875 6.359375q0 5.015625 -5.5 8.015625q3.28125 0.703125 5.234375 3.15625q1.96875 2.4375 1.96875 5.90625q0 5.015625 -3.671875 8.5625q-3.65625 3.546875 -9.125 3.546875q-5.1875 0 -8.609375 -2.984375q-3.40625 -2.984375 -3.953125 -7.796875zm54.705444 -18.703125l-7.078125 0.78125q-0.25 -2.1875 -1.34375 -3.21875q-1.09375 -1.046875 -2.84375 -1.046875q-2.3125 0 -3.921875 2.09375q-1.59375 2.078125 -2.015625 8.65625q2.734375 -3.234375 6.796875 -3.234375q4.578125 0 7.84375 3.5q3.265625 3.484375 3.265625 9.0q0 5.859375 -3.4375 9.40625q-3.421875 3.546875 -8.8125 3.546875q-5.78125 0 -9.515625 -4.484375q-3.71875 -4.5 -3.71875 -14.734375q0 -10.5 3.875 -15.125q3.890625 -4.640625 10.078125 -4.640625q4.359375 0 7.203125 2.4375q2.859375 2.4375 3.625 7.0625zm-16.578125 15.96875q0 3.5625 1.640625 5.5q1.640625 1.9375 3.75 1.9375q2.03125 0 3.375 -1.578125q1.359375 -1.59375 1.359375 -5.21875q0 -3.71875 -1.453125 -5.453125q-1.453125 -1.734375 -3.640625 -1.734375q-2.109375 0 -3.578125 1.65625q-1.453125 1.65625 -1.453125 4.890625zm40.174194 12.859375l-7.3125 0l0 -27.578125q-4.015625 3.75 -9.453125 5.546875l0 -6.640625q2.859375 -0.9375 6.21875 -3.546875q3.359375 -2.625 4.609375 -6.109375l5.9375 0l0 38.328125zm23.31482 -38.328125q5.546875 0 8.671875 3.953125q3.71875 4.6875 3.71875 15.546875q0 10.828125 -3.75 15.578125q-3.09375 3.90625 -8.640625 3.90625q-5.578125 0 -9.0 -4.28125q-3.40625 -4.296875 -3.40625 -15.28125q0 -10.78125 3.75 -15.515625q3.109375 -3.90625 8.65625 -3.90625zm0 6.0625q-1.328125 0 -2.375 0.859375q-1.046875 0.84375 -1.609375 3.03125q-0.765625 2.828125 -0.765625 9.546875q0 6.71875 0.671875 9.234375q0.6875 2.515625 1.71875 3.34375q1.03125 0.828125 2.359375 0.828125q1.328125 0 2.359375 -0.84375q1.046875 -0.84375 1.625 -3.03125q0.75 -2.8125 0.75 -9.53125q0 -6.71875 -0.6875 -9.21875q-0.671875 -2.515625 -1.703125 -3.359375q-1.015625 -0.859375 -2.34375 -0.859375zm18.53357 32.265625l0 -38.171875l7.3125 0l0 13.75q3.390625 -3.859375 8.03125 -3.859375q5.046875 0 8.34375 3.65625q3.3125 3.65625 3.3125 10.515625q0 7.078125 -3.375 10.90625q-3.359375 3.828125 -8.1875 3.828125q-2.359375 0 -4.671875 -1.1875q-2.296875 -1.1875 -3.96875 -3.5l0 4.0625l-6.796875 0zm7.265625 -14.421875q0 4.296875 1.359375 6.34375q1.890625 2.921875 5.046875 2.921875q2.421875 0 4.125 -2.0625q1.703125 -2.078125 1.703125 -6.53125q0 -4.734375 -1.71875 -6.828125q-1.71875 -2.109375 -4.390625 -2.109375q-2.640625 0 -4.390625 2.046875q-1.734375 2.046875 -1.734375 6.21875zm24.059326 -16.4375l0 -6.796875l25.015625 0l0 5.3125q-3.09375 3.046875 -6.296875 8.75q-3.203125 5.703125 -4.890625 12.125q-1.671875 6.421875 -1.640625 11.46875l-7.0625 0q0.1875 -7.921875 3.265625 -16.140625q3.09375 -8.234375 8.25 -14.71875l-16.640625 0zm36.68982 11.640625l-6.640625 -1.203125q1.125 -4.0 3.859375 -5.921875q2.734375 -1.9375 8.125 -1.9375q4.890625 0 7.28125 1.15625q2.40625 1.15625 3.375 2.953125q0.984375 1.78125 0.984375 6.546875l-0.078125 8.53125q0 3.65625 0.34375 5.390625q0.34375 1.71875 1.3125 3.703125l-7.234375 0q-0.28125 -0.734375 -0.703125 -2.15625q-0.1875 -0.65625 -0.265625 -0.859375q-1.875 1.8125 -4.015625 2.734375q-2.125 0.90625 -4.546875 0.90625q-4.265625 0 -6.734375 -2.3125q-2.453125 -2.328125 -2.453125 -5.859375q0 -2.34375 1.109375 -4.171875q1.125 -1.84375 3.140625 -2.8125q2.015625 -0.984375 5.828125 -1.71875q5.125 -0.96875 7.109375 -1.796875l0 -0.734375q0 -2.109375 -1.046875 -3.0q-1.046875 -0.90625 -3.9375 -0.90625q-1.953125 0 -3.046875 0.78125q-1.09375 0.765625 -1.765625 2.6875zm9.796875 5.9375q-1.40625 0.46875 -4.453125 1.125q-3.046875 0.640625 -3.984375 1.265625q-1.4375 1.015625 -1.4375 2.578125q0 1.546875 1.140625 2.671875q1.15625 1.109375 2.921875 1.109375q1.984375 0 3.78125 -1.296875q1.328125 -1.0 1.734375 -2.421875q0.296875 -0.9375 0.296875 -3.578125l0 -1.453125zm25.205444 -25.046875q5.546875 0 8.671875 3.953125q3.71875 4.6875 3.71875 15.546875q0 10.828125 -3.75 15.578125q-3.09375 3.90625 -8.640625 3.90625q-5.578125 0 -9.0 -4.28125q-3.40625 -4.296875 -3.40625 -15.28125q0 -10.78125 3.75 -15.515625q3.109375 -3.90625 8.65625 -3.90625zm0 6.0625q-1.328125 0 -2.375 0.859375q-1.046875 0.84375 -1.609375 3.03125q-0.765625 2.828125 -0.765625 9.546875q0 6.71875 0.671875 9.234375q0.6875 2.515625 1.71875 3.34375q1.03125 0.828125 2.359375 0.828125q1.328125 0 2.359375 -0.84375q1.046875 -0.84375 1.625 -3.03125q0.75 -2.8125 0.75 -9.53125q0 -6.71875 -0.6875 -9.21875q-0.671875 -2.515625 -1.703125 -3.359375q-1.015625 -0.859375 -2.34375 -0.859375zm17.28357 1.40625l0 -6.796875l25.015625 0l0 5.3125q-3.09375 3.046875 -6.296875 8.75q-3.203125 5.703125 -4.890625 12.125q-1.671875 6.421875 -1.640625 11.46875l-7.0625 0q0.1875 -7.921875 3.265625 -16.140625q3.09375 -8.234375 8.25 -14.71875l-16.640625 0zm29.81482 22.03125l7.078125 -0.78125q0.265625 2.15625 1.359375 3.203125q1.09375 1.046875 2.890625 1.046875q2.265625 0 3.84375 -2.078125q1.59375 -2.09375 2.046875 -8.65625q-2.765625 3.203125 -6.90625 3.203125q-4.5 0 -7.78125 -3.46875q-3.265625 -3.484375 -3.265625 -9.0625q0 -5.796875 3.453125 -9.34375q3.453125 -3.5625 8.796875 -3.5625q5.796875 0 9.515625 4.5q3.734375 4.484375 3.734375 14.765625q0 10.46875 -3.890625 15.109375q-3.875 4.625 -10.09375 4.625q-4.484375 0 -7.25 -2.375q-2.75 -2.390625 -3.53125 -7.125zm16.5625 -15.984375q0 -3.546875 -1.625 -5.5q-1.625 -1.953125 -3.765625 -1.953125q-2.03125 0 -3.375 1.609375q-1.34375 1.59375 -1.34375 5.234375q0 3.703125 1.453125 5.4375q1.46875 1.734375 3.65625 1.734375q2.109375 0 3.546875 -1.671875q1.453125 -1.671875 1.453125 -4.890625zm13.049194 15.0l7.28125 -0.765625q0.3125 2.484375 1.84375 3.9375q1.546875 1.4375 3.546875 1.4375q2.296875 0 3.875 -1.859375q1.59375 -1.875 1.59375 -5.625q0 -3.515625 -1.578125 -5.265625q-1.5625 -1.765625 -4.09375 -1.765625q-3.15625 0 -5.65625 2.796875l-5.9375 -0.859375l3.75 -19.875l19.359375 0l0 6.859375l-13.8125 0l-1.140625 6.46875q2.453125 -1.21875 5.0 -1.21875q4.875 0 8.25 3.546875q3.390625 3.53125 3.390625 9.1875q0 4.71875 -2.734375 8.40625q-3.71875 5.0625 -10.34375 5.0625q-5.28125 0 -8.625 -2.84375q-3.328125 -2.84375 -3.96875 -7.625zm29.28357 -0.3125l7.09375 -0.859375q0.328125 2.703125 1.8125 4.140625q1.484375 1.421875 3.59375 1.421875q2.265625 0 3.8125 -1.71875q1.5625 -1.71875 1.5625 -4.625q0 -2.765625 -1.484375 -4.375q-1.484375 -1.625 -3.625 -1.625q-1.40625 0 -3.359375 0.546875l0.8125 -5.953125q2.96875 0.078125 4.53125 -1.28125q1.5625 -1.375 1.5625 -3.640625q0 -1.921875 -1.15625 -3.0625q-1.140625 -1.15625 -3.046875 -1.15625q-1.875 0 -3.203125 1.3125q-1.328125 1.296875 -1.609375 3.796875l-6.75 -1.15625q0.703125 -3.453125 2.125 -5.515625q1.421875 -2.078125 3.953125 -3.265625q2.546875 -1.1875 5.703125 -1.1875q5.390625 0 8.640625 3.4375q2.6875 2.8125 2.6875 6.359375q0 5.015625 -5.5 8.015625q3.28125 0.703125 5.234375 3.15625q1.96875 2.4375 1.96875 5.90625q0 5.015625 -3.671875 8.5625q-3.65625 3.546875 -9.125 3.546875q-5.1875 0 -8.609375 -2.984375q-3.40625 -2.984375 -3.953125 -7.796875zm55.59607 -9.359375l-7.203125 1.3125q-0.375 -2.171875 -1.671875 -3.265625q-1.28125 -1.09375 -3.328125 -1.09375q-2.734375 0 -4.375 1.890625q-1.625 1.890625 -1.625 6.3125q0 4.921875 1.65625 6.953125q1.65625 2.03125 4.4375 2.03125q2.09375 0 3.421875 -1.171875q1.328125 -1.1875 1.875 -4.078125l7.171875 1.21875q-1.109375 4.953125 -4.296875 7.484375q-3.171875 2.515625 -8.5 2.515625q-6.078125 0 -9.6875 -3.828125q-3.59375 -3.828125 -3.59375 -10.59375q0 -6.859375 3.609375 -10.671875q3.625 -3.8125 9.796875 -3.8125q5.046875 0 8.03125 2.171875q2.984375 2.171875 4.28125 6.625zm5.2365723 19.484375l0 -38.171875l7.3125 0l0 13.75q3.390625 -3.859375 8.03125 -3.859375q5.046875 0 8.34375 3.65625q3.3125 3.65625 3.3125 10.515625q0 7.078125 -3.375 10.90625q-3.359375 3.828125 -8.1875 3.828125q-2.359375 0 -4.671875 -1.1875q-2.296875 -1.1875 -3.96875 -3.5l0 4.0625l-6.796875 0zm7.265625 -14.421875q0 4.296875 1.359375 6.34375q1.890625 2.921875 5.046875 2.921875q2.421875 0 4.125 -2.0625q1.703125 -2.078125 1.703125 -6.53125q0 -4.734375 -1.71875 -6.828125q-1.71875 -2.109375 -4.390625 -2.109375q-2.640625 0 -4.390625 2.046875q-1.734375 2.046875 -1.734375 6.21875zm49.7312 -5.0625l-7.203125 1.3125q-0.375 -2.171875 -1.671875 -3.265625q-1.28125 -1.09375 -3.328125 -1.09375q-2.734375 0 -4.375 1.890625q-1.625 1.890625 -1.625 6.3125q0 4.921875 1.65625 6.953125q1.65625 2.03125 4.4375 2.03125q2.09375 0 3.421875 -1.171875q1.328125 -1.1875 1.875 -4.078125l7.171875 1.21875q-1.109375 4.953125 -4.296875 7.484375q-3.171875 2.515625 -8.5 2.515625q-6.078125 0 -9.6875 -3.828125q-3.59375 -3.828125 -3.59375 -10.59375q0 -6.859375 3.609375 -10.671875q3.625 -3.8125 9.796875 -3.8125q5.046875 0 8.03125 2.171875q2.984375 2.171875 4.28125 6.625zm18.330566 19.484375l0 -7.6875l-15.625 0l0 -6.40625l16.5625 -24.234375l6.15625 0l0 24.21875l4.734375 0l0 6.421875l-4.734375 0l0 7.6875l-7.09375 0zm0 -14.109375l0 -13.046875l-8.765625 13.046875l8.765625 0z" fill-rule="nonzero"/><path fill="#000000" d="m558.48694 503.16483l1212.9506 0l0 -83.274536l-1212.9506 0z" fill-rule="evenodd"/><path fill="#000000" fill-opacity="0.0" d="m571.7111 424.3682l1186.5083 0l0 74.318726l-1186.5083 0z" fill-rule="evenodd"/><path fill="#ffffff" d="m619.82 479.56818l-7.3125 0l0 -27.578125q-4.015625 3.75 -9.453125 5.546875l0 -6.640625q2.859375 -0.9375 6.21875 -3.546875q3.359375 -2.625 4.609375 -6.109375l5.9375 0l0 38.328125zm12.580444 -38.171875l15.265625 0q4.53125 0 6.75 0.375q2.21875 0.375 3.96875 1.578125q1.765625 1.203125 2.9375 3.203125q1.171875 1.984375 1.171875 4.453125q0 2.671875 -1.453125 4.921875q-1.4375 2.234375 -3.90625 3.359375q3.484375 1.015625 5.359375 3.46875q1.875 2.4375 1.875 5.75q0 2.59375 -1.21875 5.0625q-1.203125 2.453125 -3.296875 3.9375q-2.09375 1.46875 -5.15625 1.796875q-1.9375 0.21875 -9.296875 0.265625l-13.0 0l0 -38.171875zm7.703125 6.359375l0 8.8125l5.0625 0q4.5 0 5.59375 -0.125q1.984375 -0.234375 3.109375 -1.359375q1.140625 -1.140625 1.140625 -2.984375q0 -1.765625 -0.984375 -2.875q-0.96875 -1.109375 -2.90625 -1.34375q-1.140625 -0.125 -6.578125 -0.125l-4.4375 0zm0 15.171875l0 10.203125l7.140625 0q4.171875 0 5.28125 -0.234375q1.71875 -0.3125 2.796875 -1.515625q1.078125 -1.21875 1.078125 -3.25q0 -1.71875 -0.828125 -2.90625q-0.828125 -1.203125 -2.40625 -1.75q-1.578125 -0.546875 -6.828125 -0.546875l-6.234375 0zm38.340027 16.640625l-11.15625 -27.65625l7.6875 0l5.203125 14.109375l1.515625 4.71875q0.59375 -1.796875 0.75 -2.375q0.375 -1.171875 0.78125 -2.34375l5.265625 -14.109375l7.515625 0l-10.984375 27.65625l-6.578125 0zm39.861694 -14.03125l0 -6.4375l16.609375 0l0 15.203125q-2.421875 2.34375 -7.015625 4.140625q-4.59375 1.78125 -9.3125 1.78125q-5.984375 0 -10.4375 -2.515625q-4.453125 -2.515625 -6.703125 -7.1875q-2.234375 -4.671875 -2.234375 -10.171875q0 -5.96875 2.5 -10.59375q2.5 -4.640625 7.328125 -7.109375q3.671875 -1.90625 9.140625 -1.90625q7.09375 0 11.09375 2.984375q4.0 2.984375 5.140625 8.25l-7.65625 1.421875q-0.796875 -2.8125 -3.03125 -4.4375q-2.21875 -1.625 -5.546875 -1.625q-5.0625 0 -8.046875 3.203125q-2.96875 3.203125 -2.96875 9.5q0 6.796875 3.015625 10.203125q3.015625 3.390625 7.921875 3.390625q2.421875 0 4.84375 -0.953125q2.4375 -0.953125 4.1875 -2.296875l0 -4.84375l-8.828125 0zm30.667847 14.03125l-7.3125 0l0 -27.65625l6.796875 0l0 3.9375q1.75 -2.796875 3.140625 -3.671875q1.390625 -0.890625 3.15625 -0.890625q2.5 0 4.828125 1.390625l-2.265625 6.375q-1.859375 -1.203125 -3.4375 -1.203125q-1.546875 0 -2.609375 0.84375q-1.0625 0.84375 -1.6875 3.0625q-0.609375 2.21875 -0.609375 9.265625l0 8.546875zm11.846924 -12.421875l7.5 -0.734375q0.6875 3.78125 2.75 5.5625q2.078125 1.765625 5.59375 1.765625q3.71875 0 5.609375 -1.578125q1.890625 -1.578125 1.890625 -3.6875q0 -1.359375 -0.796875 -2.296875q-0.796875 -0.953125 -2.78125 -1.65625q-1.34375 -0.46875 -6.171875 -1.671875q-6.1875 -1.53125 -8.6875 -3.78125q-3.515625 -3.140625 -3.515625 -7.671875q0 -2.921875 1.640625 -5.453125q1.65625 -2.546875 4.765625 -3.875q3.125 -1.328125 7.515625 -1.328125q7.1875 0 10.8125 3.15625q3.640625 3.15625 3.828125 8.40625l-7.703125 0.34375q-0.5 -2.9375 -2.125 -4.21875q-1.625 -1.296875 -4.890625 -1.296875q-3.359375 0 -5.25 1.375q-1.234375 0.890625 -1.234375 2.375q0 1.34375 1.15625 2.3125q1.453125 1.21875 7.078125 2.546875q5.625 1.328125 8.3125 2.75q2.703125 1.421875 4.21875 3.890625q1.53125 2.453125 1.53125 6.0625q0 3.28125 -1.828125 6.15625q-1.828125 2.859375 -5.15625 4.25q-3.328125 1.390625 -8.296875 1.390625q-7.25 0 -11.125 -3.34375q-3.875 -3.34375 -4.640625 -9.75zm37.210083 12.421875l0 -38.171875l7.328125 0l0 20.25l8.5625 -9.734375l9.0 0l-9.4375 10.109375l10.125 17.546875l-7.890625 0l-6.953125 -12.421875l-3.40625 3.5625l0 8.859375l-7.328125 0zm26.09607 0l13.046814 -19.921875l-11.828064 -18.25l9.015564 0l7.65625 12.265625l7.5 -12.265625l8.921875 0l-11.859375 18.53125l13.03125 19.640625l-9.28125 0l-8.46875 -13.203125l-8.484375 13.203125l-9.249939 0zm36.147522 0l0 -6.953125l20.046875 -24.765625l-17.78125 0l0 -6.453125l27.9375 0l0 5.984375l-20.90625 25.75l21.703125 0l0 6.4375l-31.0 0zm35.778076 0l0 -38.171875l11.53125 0l6.921875 26.03125l6.84375 -26.03125l11.5625 0l0 38.171875l-7.15625 0l0 -30.046875l-7.578125 30.046875l-7.421875 0l-7.546875 -30.046875l0 30.046875l-7.15625 0zm41.89148 -7.890625l7.34375 -1.125q0.46875 2.140625 1.890625 3.25q1.4375 1.109375 4.015625 1.109375q2.84375 0 4.28125 -1.046875q0.953125 -0.734375 0.953125 -1.953125q0 -0.828125 -0.515625 -1.375q-0.546875 -0.53125 -2.453125 -0.96875q-8.84375 -1.953125 -11.21875 -3.5625q-3.28125 -2.25 -3.28125 -6.234375q0 -3.59375 2.828125 -6.03125q2.84375 -2.453125 8.8125 -2.453125q5.671875 0 8.4375 1.859375q2.765625 1.84375 3.796875 5.453125l-6.890625 1.28125q-0.453125 -1.609375 -1.6875 -2.46875q-1.234375 -0.859375 -3.53125 -0.859375q-2.890625 0 -4.140625 0.796875q-0.828125 0.578125 -0.828125 1.484375q0 0.78125 0.734375 1.328125q0.984375 0.734375 6.828125 2.0625q5.84375 1.328125 8.171875 3.25q2.28125 1.953125 2.28125 5.453125q0 3.796875 -3.171875 6.53125q-3.171875 2.734375 -9.40625 2.734375q-5.640625 0 -8.9375 -2.28125q-3.296875 -2.296875 -4.3125 -6.234375zm32.31482 7.890625l0 -38.171875l16.21875 0q6.125 0 8.890625 1.03125q2.78125 1.03125 4.4375 3.65625q1.671875 2.625 1.671875 6.015625q0 4.296875 -2.53125 7.09375q-2.515625 2.796875 -7.546875 3.53125q2.5 1.453125 4.125 3.203125q1.625 1.734375 4.390625 6.1875l4.65625 7.453125l-9.21875 0l-5.5625 -8.3125q-2.96875 -4.453125 -4.0625 -5.609375q-1.09375 -1.15625 -2.328125 -1.578125q-1.21875 -0.4375 -3.875 -0.4375l-1.5625 0l0 15.9375l-7.703125 0zm7.703125 -22.03125l5.703125 0q5.546875 0 6.921875 -0.46875q1.390625 -0.46875 2.171875 -1.609375q0.78125 -1.15625 0.78125 -2.859375q0 -1.9375 -1.03125 -3.109375q-1.03125 -1.1875 -2.90625 -1.5q-0.9375 -0.140625 -5.625 -0.140625l-6.015625 0l0 9.6875zm37.73065 22.03125l-7.3125 0l0 -27.65625l6.796875 0l0 3.9375q1.75 -2.796875 3.140625 -3.671875q1.390625 -0.890625 3.15625 -0.890625q2.5 0 4.828125 1.390625l-2.265625 6.375q-1.859375 -1.203125 -3.4375 -1.203125q-1.546875 0 -2.609375 0.84375q-1.0625 0.84375 -1.6875 3.0625q-0.609375 2.21875 -0.609375 9.265625l0 8.546875zm36.971924 -28.828125l-7.078125 0.78125q-0.25 -2.1875 -1.34375 -3.21875q-1.09375 -1.046875 -2.84375 -1.046875q-2.3125 0 -3.921875 2.09375q-1.59375 2.078125 -2.015625 8.65625q2.734375 -3.234375 6.796875 -3.234375q4.578125 0 7.84375 3.5q3.265625 3.484375 3.265625 9.0q0 5.859375 -3.4375 9.40625q-3.421875 3.546875 -8.8125 3.546875q-5.78125 0 -9.515625 -4.484375q-3.71875 -4.5 -3.71875 -14.734375q0 -10.5 3.875 -15.125q3.890625 -4.640625 10.078125 -4.640625q4.359375 0 7.203125 2.4375q2.859375 2.4375 3.625 7.0625zm-16.578125 15.96875q0 3.5625 1.640625 5.5q1.640625 1.9375 3.75 1.9375q2.03125 0 3.375 -1.578125q1.359375 -1.59375 1.359375 -5.21875q0 -3.71875 -1.453125 -5.453125q-1.453125 -1.734375 -3.640625 -1.734375q-2.109375 0 -3.578125 1.65625q-1.453125 1.65625 -1.453125 4.890625zm19.549194 -14.796875l7.796875 0l6.609375 19.640625l6.453125 -19.640625l7.578125 0l-9.765625 26.609375l-1.734375 4.828125q-0.96875 2.421875 -1.84375 3.6875q-0.875 1.28125 -2.015625 2.078125q-1.125 0.796875 -2.78125 1.234375q-1.640625 0.4375 -3.734375 0.4375q-2.109375 0 -4.140625 -0.4375l-0.640625 -5.734375q1.71875 0.34375 3.09375 0.34375q2.546875 0 3.765625 -1.5q1.234375 -1.5 1.890625 -3.8125l-10.53125 -27.734375zm57.59607 13.625l7.484375 2.359375q-1.71875 6.25 -5.71875 9.296875q-4.0 3.03125 -10.140625 3.03125q-7.609375 0 -12.5 -5.1875q-4.890625 -5.203125 -4.890625 -14.21875q0 -9.53125 4.921875 -14.796875q4.921875 -5.28125 12.9375 -5.28125q7.0 0 11.375 4.140625q2.609375 2.453125 3.90625 7.03125l-7.625 1.828125q-0.6875 -2.96875 -2.828125 -4.6875q-2.140625 -1.71875 -5.21875 -1.71875q-4.25 0 -6.890625 3.046875q-2.640625 3.046875 -2.640625 9.859375q0 7.25 2.59375 10.328125q2.609375 3.0625 6.78125 3.0625q3.078125 0 5.28125 -1.953125q2.21875 -1.953125 3.171875 -6.140625zm14.121338 14.03125l0 -38.171875l16.21875 0q6.125 0 8.890625 1.03125q2.78125 1.03125 4.4375 3.65625q1.671875 2.625 1.671875 6.015625q0 4.296875 -2.53125 7.09375q-2.515625 2.796875 -7.546875 3.53125q2.5 1.453125 4.125 3.203125q1.625 1.734375 4.390625 6.1875l4.65625 7.453125l-9.21875 0l-5.5625 -8.3125q-2.96875 -4.453125 -4.0625 -5.609375q-1.09375 -1.15625 -2.328125 -1.578125q-1.21875 -0.4375 -3.875 -0.4375l-1.5625 0l0 15.9375l-7.703125 0zm7.703125 -22.03125l5.703125 0q5.546875 0 6.921875 -0.46875q1.390625 -0.46875 2.171875 -1.609375q0.78125 -1.15625 0.78125 -2.859375q0 -1.9375 -1.03125 -3.109375q-1.03125 -1.1875 -2.90625 -1.5q-0.9375 -0.140625 -5.625 -0.140625l-6.015625 0l0 9.6875zm29.04309 7.8125q0 -3.640625 1.796875 -7.046875q1.796875 -3.421875 5.078125 -5.21875q3.296875 -1.796875 7.359375 -1.796875q6.28125 0 10.28125 4.078125q4.015625 4.078125 4.015625 10.296875q0 6.28125 -4.046875 10.40625q-4.046875 4.125 -10.1875 4.125q-3.8125 0 -7.265625 -1.71875q-3.4375 -1.71875 -5.234375 -5.03125q-1.796875 -3.328125 -1.796875 -8.09375zm7.5 0.390625q0 4.109375 1.953125 6.296875q1.953125 2.1875 4.8125 2.1875q2.859375 0 4.796875 -2.1875q1.953125 -2.1875 1.953125 -6.34375q0 -4.0625 -1.953125 -6.25q-1.9375 -2.1875 -4.796875 -2.1875q-2.859375 0 -4.8125 2.1875q-1.953125 2.1875 -1.953125 6.296875zm24.934326 3.703125l7.09375 -0.859375q0.328125 2.703125 1.8125 4.140625q1.484375 1.421875 3.59375 1.421875q2.265625 0 3.8125 -1.71875q1.5625 -1.71875 1.5625 -4.625q0 -2.765625 -1.484375 -4.375q-1.484375 -1.625 -3.625 -1.625q-1.40625 0 -3.359375 0.546875l0.8125 -5.953125q2.96875 0.078125 4.53125 -1.28125q1.5625 -1.375 1.5625 -3.640625q0 -1.921875 -1.15625 -3.0625q-1.140625 -1.15625 -3.046875 -1.15625q-1.875 0 -3.203125 1.3125q-1.328125 1.296875 -1.609375 3.796875l-6.75 -1.15625q0.703125 -3.453125 2.125 -5.515625q1.421875 -2.078125 3.953125 -3.265625q2.546875 -1.1875 5.703125 -1.1875q5.390625 0 8.640625 3.4375q2.6875 2.8125 2.6875 6.359375q0 5.015625 -5.5 8.015625q3.28125 0.703125 5.234375 3.15625q1.96875 2.4375 1.96875 5.90625q0 5.015625 -3.671875 8.5625q-3.65625 3.546875 -9.125 3.546875q-5.1875 0 -8.609375 -2.984375q-3.40625 -2.984375 -3.953125 -7.796875zm36.205444 -10.46875q-2.84375 -1.203125 -4.140625 -3.296875q-1.28125 -2.09375 -1.28125 -4.59375q0 -4.265625 2.984375 -7.046875q2.984375 -2.796875 8.46875 -2.796875q5.453125 0 8.453125 2.796875q3.015625 2.78125 3.015625 7.046875q0 2.65625 -1.390625 4.734375q-1.375 2.0625 -3.875 3.15625q3.171875 1.265625 4.828125 3.71875q1.65625 2.453125 1.65625 5.65625q0 5.28125 -3.375 8.59375q-3.375 3.296875 -8.96875 3.296875q-5.203125 0 -8.671875 -2.734375q-4.09375 -3.21875 -4.09375 -8.84375q0 -3.109375 1.53125 -5.6875q1.546875 -2.59375 4.859375 -4.0zm1.5 -7.375q0 2.1875 1.234375 3.421875q1.25 1.21875 3.296875 1.21875q2.09375 0 3.34375 -1.234375q1.25 -1.25 1.25 -3.421875q0 -2.0625 -1.25 -3.296875q-1.234375 -1.234375 -3.265625 -1.234375q-2.109375 0 -3.359375 1.25q-1.25 1.25 -1.25 3.296875zm-0.671875 16.359375q0 3.015625 1.546875 4.71875q1.546875 1.6875 3.875 1.6875q2.265625 0 3.75 -1.625q1.484375 -1.640625 1.484375 -4.703125q0 -2.6875 -1.515625 -4.3125q-1.515625 -1.625 -3.828125 -1.625q-2.6875 0 -4.0 1.84375q-1.3125 1.84375 -1.3125 4.015625zm36.892944 11.609375l0 -7.6875l-15.625 0l0 -6.40625l16.5625 -24.234375l6.15625 0l0 24.21875l4.734375 0l0 6.421875l-4.734375 0l0 7.6875l-7.09375 0zm0 -14.109375l0 -13.046875l-8.765625 13.046875l8.765625 0zm16.955444 -24.0625l15.265625 0q4.53125 0 6.75 0.375q2.21875 0.375 3.96875 1.578125q1.765625 1.203125 2.9375 3.203125q1.171875 1.984375 1.171875 4.453125q0 2.671875 -1.453125 4.921875q-1.4375 2.234375 -3.90625 3.359375q3.484375 1.015625 5.359375 3.46875q1.875 2.4375 1.875 5.75q0 2.59375 -1.21875 5.0625q-1.203125 2.453125 -3.296875 3.9375q-2.09375 1.46875 -5.15625 1.796875q-1.9375 0.21875 -9.296875 0.265625l-13.0 0l0 -38.171875zm7.703125 6.359375l0 8.8125l5.0625 0q4.5 0 5.59375 -0.125q1.984375 -0.234375 3.109375 -1.359375q1.140625 -1.140625 1.140625 -2.984375q0 -1.765625 -0.984375 -2.875q-0.96875 -1.109375 -2.90625 -1.34375q-1.140625 -0.125 -6.578125 -0.125l-4.4375 0zm0 15.171875l0 10.203125l7.140625 0q4.171875 0 5.28125 -0.234375q1.71875 -0.3125 2.796875 -1.515625q1.078125 -1.21875 1.078125 -3.25q0 -1.71875 -0.828125 -2.90625q-0.828125 -1.203125 -2.40625 -1.75q-1.578125 -0.546875 -6.828125 -0.546875l-6.234375 0zm30.464966 16.640625l0 -38.171875l7.328125 0l0 20.25l8.5625 -9.734375l9.0 0l-9.4375 10.109375l10.125 17.546875l-7.890625 0l-6.953125 -12.421875l-3.40625 3.5625l0 8.859375l-7.328125 0zm34.642944 -20.59375q-2.84375 -1.203125 -4.140625 -3.296875q-1.28125 -2.09375 -1.28125 -4.59375q0 -4.265625 2.984375 -7.046875q2.984375 -2.796875 8.46875 -2.796875q5.453125 0 8.453125 2.796875q3.015625 2.78125 3.015625 7.046875q0 2.65625 -1.390625 4.734375q-1.375 2.0625 -3.875 3.15625q3.171875 1.265625 4.828125 3.71875q1.65625 2.453125 1.65625 5.65625q0 5.28125 -3.375 8.59375q-3.375 3.296875 -8.96875 3.296875q-5.203125 0 -8.671875 -2.734375q-4.09375 -3.21875 -4.09375 -8.84375q0 -3.109375 1.53125 -5.6875q1.546875 -2.59375 4.859375 -4.0zm1.5 -7.375q0 2.1875 1.234375 3.421875q1.25 1.21875 3.296875 1.21875q2.09375 0 3.34375 -1.234375q1.25 -1.25 1.25 -3.421875q0 -2.0625 -1.25 -3.296875q-1.234375 -1.234375 -3.265625 -1.234375q-2.109375 0 -3.359375 1.25q-1.25 1.25 -1.25 3.296875zm-0.671875 16.359375q0 3.015625 1.546875 4.71875q1.546875 1.6875 3.875 1.6875q2.265625 0 3.75 -1.625q1.484375 -1.640625 1.484375 -4.703125q0 -2.6875 -1.515625 -4.3125q-1.515625 -1.625 -3.828125 -1.625q-2.6875 0 -4.0 1.84375q-1.3125 1.84375 -1.3125 4.015625zm36.799194 -16.046875l0 5.828125l-5.0 0l0 11.15625q0 3.375 0.140625 3.9375q0.140625 0.5625 0.640625 0.9375q0.515625 0.359375 1.25 0.359375q1.015625 0 2.9375 -0.703125l0.625 5.671875q-2.546875 1.09375 -5.78125 1.09375q-1.984375 0 -3.578125 -0.65625q-1.578125 -0.671875 -2.328125 -1.71875q-0.734375 -1.0625 -1.015625 -2.859375q-0.234375 -1.28125 -0.234375 -5.15625l0 -12.0625l-3.359375 0l0 -5.828125l3.359375 0l0 -5.484375l7.34375 -4.28125l0 9.765625l5.0 0zm17.758667 0l0 5.828125l-5.0 0l0 11.15625q0 3.375 0.140625 3.9375q0.140625 0.5625 0.640625 0.9375q0.515625 0.359375 1.25 0.359375q1.015625 0 2.9375 -0.703125l0.625 5.671875q-2.546875 1.09375 -5.78125 1.09375q-1.984375 0 -3.578125 -0.65625q-1.578125 -0.671875 -2.328125 -1.71875q-0.734375 -1.0625 -1.015625 -2.859375q-0.234375 -1.28125 -0.234375 -5.15625l0 -12.0625l-3.359375 0l0 -5.828125l3.359375 0l0 -5.484375l7.34375 -4.28125l0 9.765625l5.0 0zm35.852417 22.8125q2.828125 2.03125 6.171875 3.234375l-2.84375 5.4375q-1.75 -0.515625 -3.40625 -1.4375q-0.375 -0.171875 -5.140625 -3.375q-3.734375 1.640625 -8.296875 1.640625q-8.796875 0 -13.796875 -5.1875q-4.984375 -5.1875 -4.984375 -14.5625q0 -9.34375 5.0 -14.53125q5.0 -5.203125 13.578125 -5.203125q8.484375 0 13.453125 5.203125q4.96875 5.1875 4.96875 14.53125q0 4.953125 -1.375 8.703125q-1.046875 2.859375 -3.328125 5.546875zm-6.203125 -4.34375q1.484375 -1.75 2.21875 -4.21875q0.75 -2.484375 0.75 -5.6875q0 -6.609375 -2.921875 -9.875q-2.90625 -3.265625 -7.625 -3.265625q-4.703125 0 -7.640625 3.28125q-2.921875 3.28125 -2.921875 9.859375q0 6.703125 2.921875 10.03125q2.9375 3.3125 7.40625 3.3125q1.671875 0 3.15625 -0.546875q-2.34375 -1.546875 -4.765625 -2.40625l2.15625 -4.390625q3.8125 1.296875 7.265625 3.90625zm29.683472 9.1875l0 -7.6875l-15.625 0l0 -6.40625l16.5625 -24.234375l6.15625 0l0 24.21875l4.734375 0l0 6.421875l-4.734375 0l0 7.6875l-7.09375 0zm0 -14.109375l0 -13.046875l-8.765625 13.046875l8.765625 0zm26.955444 14.109375l0 -16.0625l-13.984375 -22.109375l9.03125 0l8.984375 15.09375l8.796875 -15.09375l8.890625 0l-14.03125 22.15625l0 16.015625l-7.6875 0zm48.710083 -28.828125l-7.078125 0.78125q-0.25 -2.1875 -1.34375 -3.21875q-1.09375 -1.046875 -2.84375 -1.046875q-2.3125 0 -3.921875 2.09375q-1.59375 2.078125 -2.015625 8.65625q2.734375 -3.234375 6.796875 -3.234375q4.578125 0 7.84375 3.5q3.265625 3.484375 3.265625 9.0q0 5.859375 -3.4375 9.40625q-3.421875 3.546875 -8.8125 3.546875q-5.78125 0 -9.515625 -4.484375q-3.71875 -4.5 -3.71875 -14.734375q0 -10.5 3.875 -15.125q3.890625 -4.640625 10.078125 -4.640625q4.359375 0 7.203125 2.4375q2.859375 2.4375 3.625 7.0625zm-16.578125 15.96875q0 3.5625 1.640625 5.5q1.640625 1.9375 3.75 1.9375q2.03125 0 3.375 -1.578125q1.359375 -1.59375 1.359375 -5.21875q0 -3.71875 -1.453125 -5.453125q-1.453125 -1.734375 -3.640625 -1.734375q-2.109375 0 -3.578125 1.65625q-1.453125 1.65625 -1.453125 4.890625zm30.017944 12.859375l-7.3125 0l0 -27.65625l6.796875 0l0 3.9375q1.75 -2.796875 3.140625 -3.671875q1.390625 -0.890625 3.15625 -0.890625q2.5 0 4.828125 1.390625l-2.265625 6.375q-1.859375 -1.203125 -3.4375 -1.203125q-1.546875 0 -2.609375 0.84375q-1.0625 0.84375 -1.6875 3.0625q-0.609375 2.21875 -0.609375 9.265625l0 8.546875zm29.768799 -8.796875l7.28125 1.21875q-1.390625 4.015625 -4.4375 6.109375q-3.03125 2.09375 -7.578125 2.09375q-7.21875 0 -10.6875 -4.71875q-2.734375 -3.765625 -2.734375 -9.53125q0 -6.875 3.59375 -10.765625q3.59375 -3.890625 9.09375 -3.890625q6.171875 0 9.734375 4.078125q3.5625 4.078125 3.40625 12.484375l-18.328125 0q0.078125 3.25 1.765625 5.0625q1.703125 1.8125 4.234375 1.8125q1.71875 0 2.890625 -0.9375q1.171875 -0.9375 1.765625 -3.015625zm0.421875 -7.40625q-0.078125 -3.171875 -1.640625 -4.828125q-1.5625 -1.65625 -3.8125 -1.65625q-2.390625 0 -3.953125 1.75q-1.5625 1.75 -1.53125 4.734375l10.9375 0zm13.267944 16.203125l0 -38.171875l28.3125 0l0 6.453125l-20.59375 0l0 8.46875l19.15625 0l0 6.421875l-19.15625 0l0 10.390625l21.3125 0l0 6.4375l-29.03125 0zm48.303833 0l0 -7.6875l-15.625 0l0 -6.40625l16.5625 -24.234375l6.15625 0l0 24.21875l4.734375 0l0 6.421875l-4.734375 0l0 7.6875l-7.09375 0zm0 -14.109375l0 -13.046875l-8.765625 13.046875l8.765625 0zm42.236694 14.109375l-6.796875 0l0 -4.0625q-1.6875 2.375 -4.0 3.53125q-2.296875 1.15625 -4.640625 1.15625q-4.765625 0 -8.171875 -3.84375q-3.390625 -3.84375 -3.390625 -10.71875q0 -7.03125 3.296875 -10.6875q3.3125 -3.65625 8.375 -3.65625q4.625 0 8.015625 3.859375l0 -13.75l7.3125 0l0 38.171875zm-19.53125 -14.421875q0 4.421875 1.234375 6.40625q1.765625 2.859375 4.9375 2.859375q2.53125 0 4.296875 -2.140625q1.78125 -2.15625 1.78125 -6.421875q0 -4.765625 -1.71875 -6.859375q-1.71875 -2.109375 -4.40625 -2.109375q-2.609375 0 -4.375 2.078125q-1.75 2.0625 -1.75 6.1875zm43.903076 14.421875l-7.3125 0l0 -27.578125q-4.015625 3.75 -9.453125 5.546875l0 -6.640625q2.859375 -0.9375 6.21875 -3.546875q3.359375 -2.625 4.609375 -6.109375l5.9375 0l0 38.328125z" fill-rule="nonzero"/><path fill="#000000" d="m558.48694 608.13745l83.1496 0l0 -83.274536l-83.1496 0z" fill-rule="evenodd"/><path fill="#000000" fill-opacity="0.0" d="m567.0994 529.3408l68.361145 0l0 74.318726l-68.361145 0z" fill-rule="evenodd"/><path fill="#ffffff" d="m616.8807 584.5408l0 -7.3125l7.34375 0l0 7.3125l-7.34375 0zm-17.765625 0l0 -7.3125l7.3125 0l0 7.3125l-7.3125 0zm-17.78125 0l0 -7.3125l7.3125 0l0 7.3125l-7.3125 0z" fill-rule="nonzero"/></g></svg>