<svg xmlns="http://www.w3.org/2000/svg" viewBox="0 0 46 64">
    <defs>
        <style>
            .cls-1{fill:#e8a93a}.cls-2{opacity:.2}.cls-3{fill:#594343}.cls-4{fill:#3d2c2c}
        </style>
    </defs>
    <g id="ic_linkbit" transform="translate(0 -.003)">
        <path id="패스_16" d="M32.95 13.8l-20.043 5.374a4.662 4.662 0 0 0-3.457 4.5v8.895a4.662 4.662 0 0 0 5.868 4.5L35.361 31.7a4.662 4.662 0 0 0 3.457-4.5v-8.9a4.66 4.66 0 0 0-5.868-4.5zM16.384 32.2a1.236 1.236 0 0 1-.884 1.122.656.656 0 0 1-.884-.647v-9.458A1.236 1.236 0 0 1 15.5 22.1a.656.656 0 0 1 .884.647zm3.285-.586a1.236 1.236 0 0 1-.884 1.122.656.656 0 0 1-.884-.647v-5.041a1.236 1.236 0 0 1 .884-1.122.656.656 0 0 1 .884.647zM19.8 23.6a1.236 1.236 0 0 1-.884 1.122.656.656 0 0 1-.884-.647V22.3a1.236 1.236 0 0 1 .884-1.122.656.656 0 0 1 .884.647zm3.416 6.772a1.236 1.236 0 0 1-.884 1.122.656.656 0 0 1-.884-.647v-9.459a1.236 1.236 0 0 1 .884-1.122.656.656 0 0 1 .884.647zm3.411-.915a1.236 1.236 0 0 1-.884 1.122.656.656 0 0 1-.884-.647v-9.459a1.236 1.236 0 0 1 .884-1.122.656.656 0 0 1 .884.647zm3.421-.92a1.236 1.236 0 0 1-.884 1.122.656.656 0 0 1-.884-.647v-9.459a1.236 1.236 0 0 1 .884-1.122.656.656 0 0 1 .884.647zm3.416-.915a1.236 1.236 0 0 1-.884 1.122.656.656 0 0 1-.88-.644v-2.957a1.236 1.236 0 0 1 .884-1.122.656.656 0 0 1 .884.647zm0-6.5a1.236 1.236 0 0 1-.884 1.122.656.656 0 0 1-.884-.647v-2.959a1.236 1.236 0 0 1 .884-1.122.656.656 0 0 1 .884.647z" class="cls-1" data-name="패스 16" transform="translate(-4.674 -6.745)"/>
        <path id="패스_17" d="M38.818 18.3v1.314a4.658 4.658 0 0 0-5.868-4.5l-20.043 5.374a4.662 4.662 0 0 0-3.457 4.5v-1.311a4.667 4.667 0 0 1 3.457-4.5L32.95 13.8a4.663 4.663 0 0 1 5.868 4.5z" class="cls-2" data-name="패스 17" transform="translate(-4.674 -6.745)"/>
        <path id="패스_18" d="M39.182 30.051L6 21.029l-.7-.194L5.271 17v-.051a4.461 4.461 0 0 1 2.951-4.3c.086-.026.172-.051.258-.072L28.251 7.2a4.616 4.616 0 0 1 5.8 4.5v9.35a4.644 4.644 0 0 1-.672 2.41l2.3.624a2.709 2.709 0 0 0 3.421-2.579V9.32A9.162 9.162 0 0 0 29.54.012c-.071 0-.147 0-.217.005-.091.005-.192.02-.283.026-.2.02-.4.046-.6.082s-.409.072-.606.118c-.1.026-.2.046-.3.082L23.313 1.46l-19.9 5.4a4.636 4.636 0 0 0-2.34 1.515 3.255 3.255 0 0 0-.313.435 4.709 4.709 0 0 0-.74 2.532v3.014H.015v5.123l.005.005v.164L0 47.174a9.3 9.3 0 0 0 6.813 9l27.589 7.5a9.217 9.217 0 0 0 11.583-8.986L46 39.053a9.3 9.3 0 0 0-6.818-9.002z" class="cls-3" data-name="패스 18"/>
        <path id="패스_19" d="M39.121 9.206v12.033a2.71 2.71 0 0 1-3.426 2.547l-2.3-.617a4.531 4.531 0 0 0 .672-2.38v-9.238a4.6 4.6 0 0 0-5.8-4.442L8.49 12.41c-.086.02-.172.045-.258.071a4.421 4.421 0 0 0-2.951 4.25v.051l.03 3.79.7.192L.035 19.41v-.172H.03v-5.059h.005V11.2a4.608 4.608 0 0 1 .743-2.5 3.578 3.578 0 0 1 .313-.43 4.609 4.609 0 0 1 2.34-1.5l19.907-5.322 4.22-1.122c.1-.03.2-.051.3-.081.2-.045.4-.086.606-.116s.4-.061.6-.081c.091-.005.192-.02.283-.025.071-.005.147-.005.217-.005a7.5 7.5 0 0 1 1.066.015 9.2 9.2 0 0 1 8.491 9.173z" class="cls-4" data-name="패스 19" transform="translate(-.015 -.001)"/>
        <path id="패스_20" d="M39.121 9.206v9.4a2.707 2.707 0 0 1-3.432 2.547l-1.627-.44v-9.162a4.6 4.6 0 0 0-5.8-4.442L8.49 12.41c-.086.02-.172.045-.258.071A4.388 4.388 0 0 0 5.3 16.3a4.169 4.169 0 0 0-.02.435v.051l.02 1.153.02 2.633.7.192L.035 19.41v-.172H.03v-5.059h.005V11.2a4.608 4.608 0 0 1 .743-2.5 3.578 3.578 0 0 1 .313-.43 4.609 4.609 0 0 1 2.34-1.5l19.907-5.322 4.22-1.122c.1-.035.2-.051.3-.081.2-.045.4-.086.606-.116s.4-.061.6-.081c.091-.005.192-.02.283-.025.071-.005.147-.005.217-.005a7.5 7.5 0 0 1 1.066.015 9.2 9.2 0 0 1 8.491 9.173z" class="cls-4" data-name="패스 20" transform="translate(-.015 -.001)"/>
        <path id="패스_21" d="M.035 35.018H.03V31.91l5.256 1.314.03 3.133.7.192L.035 35.19z" class="cls-2" data-name="패스 21" transform="translate(-.015 -15.563)"/>
    </g>
</svg>
