<svg height="463pt" viewBox="-63 0 463 463.59122" width="463pt" xmlns="http://www.w3.org/2000/svg"><path d="m280.296875 56v-32h-48v-24h-48v168h48v-56h32v-32h-32v-24zm0 0" fill="#46f8ff"/><path d="m256.296875 192c0 26.507812-21.488281 48-48 48-26.507813 0-48-21.492188-48-48s21.492187-48 48-48c26.511719 0 48 21.492188 48 48zm0 0" fill="#ff633b"/><path d="m336.296875 256-64 72-8 24-24 24-72 24h-48l-24.71875 24.71875-56-56 32.71875-32.71875v-40l56-72 32 24-24 40 24 24h56l88-88zm0 0" fill="#ffead0"/><path d="m.296875 383.992188 27.277344-27.277344 79.597656 79.597656-27.277344 27.277344zm0 0" fill="#a78966"/><path d="m224.296875 192c0 8.835938-7.164063 16-16 16s-16-7.164062-16-16 7.164063-16 16-16 16 7.164062 16 16zm0 0" fill="#6a696e"/></svg>